<?xml version="1.0" encoding="UTF-8" standalone="no" ?>
<!DOCTYPE svg PUBLIC "-//W3C//DTD SVG 1.1//EN" "http://www.w3.org/Graphics/SVG/1.1/DTD/svg11.dtd">
<svg width="172mm" xmlns="http://www.w3.org/2000/svg" height="142mm" version="1.1" viewBox="0 0 652 538" xmlns:xlink="http://www.w3.org/1999/xlink">
   <polyline fill="none" points="382,126 454,126 454,268 578,268" stroke="#0080ff" stroke-width="1"/>
   <polyline fill="none" points="506,272 519,268 506,264" stroke="#0080ff" stroke-width="1"/>
   <text x="434" y="121" fill="#000000" font-size="10" font-family="Arial" text-anchor="middle">1..1</text>
   <text x="491" y="279" fill="#000000" font-size="10" font-family="Arial" text-anchor="middle">0..*</text>
   <polyline fill="none" points="377,181 377,399 207,399" stroke="#0080ff" stroke-width="1"/>
   <polyline fill="none" points="228,395 214,399 228,403" stroke="#0080ff" stroke-width="1"/>
   <text x="390" y="223" fill="#000000" font-size="10" font-family="Arial" text-anchor="middle">1..1</text>
   <text x="242" y="394" fill="#000000" font-size="10" font-family="Arial" text-anchor="middle">0..*</text>
   <polyline fill="none" points="538,317 538,415 201,415" stroke="#0080ff" stroke-width="1"/>
   <polyline fill="none" points="228,411 214,415 228,419" stroke="#0080ff" stroke-width="1"/>
   <text x="550" y="346" fill="#000000" font-size="10" font-family="Arial" text-anchor="middle">1..1</text>
   <text x="242" y="410" fill="#000000" font-size="10" font-family="Arial" text-anchor="middle">0..*</text>
   <polyline fill="none" points="242,116 190,116 190,128 141,128" stroke="#0080ff" stroke-width="1"/>
   <polyline fill="none" points="160,124 147,128 160,132" stroke="#0080ff" stroke-width="1"/>
   <text x="204" y="126" fill="#000000" font-size="10" font-family="Arial" text-anchor="middle">1..1</text>
   <text x="174" y="123" fill="#000000" font-size="10" font-family="Arial" text-anchor="middle">0..*</text>
   <polyline fill="none" points="616,124 616,183 599,183 599,223" stroke="#0080ff" stroke-width="1"/>
   <polyline fill="none" points="595,203 599,217 603,203" stroke="#0080ff" stroke-width="1"/>
   <text x="628" y="167" fill="#000000" font-size="10" font-family="Arial" text-anchor="middle">1..1</text>
   <text x="587" y="196" fill="#000000" font-size="10" font-family="Arial" text-anchor="middle">0..*</text>
   <polyline fill="none" points="560,68 560,32 502,32" stroke="#0080ff" stroke-width="1"/>
   <polyline fill="none" points="520,28 507,32 520,36" stroke="#0080ff" stroke-width="1"/>
   <text x="546" y="39" fill="#000000" font-size="10" font-family="Arial" text-anchor="middle">1..1</text>
   <text x="534" y="27" fill="#000000" font-size="10" font-family="Arial" text-anchor="middle">0..*</text>
   <polyline fill="none" points="388,60 388,32 449,32" stroke="#0080ff" stroke-width="1"/>
   <polyline fill="none" points="424,36 437,32 424,28" stroke="#0080ff" stroke-width="1"/>
   <text x="374" y="32" fill="#000000" font-size="10" font-family="Arial" text-anchor="middle">1..1</text>
   <text x="408" y="43" fill="#000000" font-size="10" font-family="Arial" text-anchor="middle">0..*</text>
   <polyline fill="none" points="578,309 70,309 70,146" stroke="#0080ff" stroke-width="1"/>
   <polyline fill="none" points="74,169 70,156 66,169" stroke="#0080ff" stroke-width="1"/>
   <text x="490" y="319" fill="#000000" font-size="10" font-family="Arial" text-anchor="middle">1..1</text>
   <text x="81" y="183" fill="#000000" font-size="10" font-family="Arial" text-anchor="middle">0..*</text>
   <defs>
      <linearGradient id="Gradient1" x1="0%" x2="100%" y1="0%" y2="100%" gradientUnits="objectBoundingBox">
         <stop offset="5%" stop-color="#ffffff"/>
         <stop offset="95%" stop-color="#aee4ff"/>
      </linearGradient>
   </defs>
   <rect x="234" y="53" fill="url(#Gradient1)" width="172" height="144" stroke="#0080ff" stroke-width="1"/>
   <text x="320" y="64" fill="#000000" font-size="10" font-family="Arial" text-anchor="middle">User</text>
   <line x1="234" x2="406" y1="70" y2="70" stroke="#0080ff" stroke-width="1"/>
   <text x="238" y="80" fill="#000000" font-size="10" font-family="Arial" text-decoration="underline">-</text>
   <text x="238" y="93" fill="#000000" font-size="10" font-family="Arial">-</text>
   <text x="238" y="106" fill="#000000" font-size="10" font-family="Arial">-</text>
   <text x="238" y="119" fill="#000000" font-size="10" font-family="Arial">-</text>
   <text x="238" y="132" fill="#000000" font-size="10" font-family="Arial">-</text>
   <text x="238" y="145" fill="#000000" font-size="10" font-family="Arial">-</text>
   <text x="238" y="158" fill="#000000" font-size="10" font-family="Arial">-</text>
   <text x="238" y="171" fill="#000000" font-size="10" font-family="Arial">-</text>
   <text x="249" y="80" fill="#000000" font-size="10" font-family="Arial" text-decoration="underline">idUser</text>
   <text x="249" y="93" fill="#000000" font-size="10" font-family="Arial">name</text>
   <text x="249" y="106" fill="#000000" font-size="10" font-family="Arial">photo</text>
   <text x="249" y="119" fill="#000000" font-size="10" font-family="Arial">email</text>
   <text x="249" y="132" fill="#000000" font-size="10" font-family="Arial">phone</text>
   <text x="249" y="145" fill="#000000" font-size="10" font-family="Arial">city</text>
   <text x="249" y="158" fill="#000000" font-size="10" font-family="Arial">password</text>
   <text x="249" y="171" fill="#000000" font-size="10" font-family="Arial">role</text>
   <text x="299" y="80" fill="#000000" font-size="10" font-family="Arial" text-decoration="underline">: int</text>
   <text x="299" y="93" fill="#000000" font-size="10" font-family="Arial">: String</text>
   <text x="299" y="106" fill="#000000" font-size="10" font-family="Arial">: String</text>
   <text x="299" y="119" fill="#000000" font-size="10" font-family="Arial">: String</text>
   <text x="299" y="132" fill="#000000" font-size="10" font-family="Arial">: String</text>
   <text x="299" y="145" fill="#000000" font-size="10" font-family="Arial">: String</text>
   <text x="299" y="158" fill="#000000" font-size="10" font-family="Arial">: String</text>
   <text x="299" y="171" fill="#000000" font-size="10" font-family="Arial">: String</text>
   <line x1="234" x2="406" y1="178" y2="178" stroke="#0080ff" stroke-width="1"/>
   <defs>
      <linearGradient id="Gradient2" x1="0%" x2="100%" y1="0%" y2="100%" gradientUnits="objectBoundingBox">
         <stop offset="5%" stop-color="#ffffff"/>
         <stop offset="95%" stop-color="#aee4ff"/>
      </linearGradient>
   </defs>
   <rect x="519" y="217" fill="url(#Gradient2)" width="118" height="103" stroke="#0080ff" stroke-width="1"/>
   <text x="578" y="228" fill="#000000" font-size="10" font-family="Arial" text-anchor="middle">post</text>
   <line x1="519" x2="637" y1="234" y2="234" stroke="#0080ff" stroke-width="1"/>
   <text x="524" y="244" fill="#000000" font-size="10" font-family="Arial" text-decoration="underline">-</text>
   <text x="524" y="257" fill="#000000" font-size="10" font-family="Arial">-</text>
   <text x="524" y="270" fill="#000000" font-size="10" font-family="Arial">-</text>
   <text x="524" y="283" fill="#000000" font-size="10" font-family="Arial">-</text>
   <text x="524" y="296" fill="#000000" font-size="10" font-family="Arial">-</text>
   <text x="535" y="244" fill="#000000" font-size="10" font-family="Arial" text-decoration="underline">idPost</text>
   <text x="535" y="257" fill="#000000" font-size="10" font-family="Arial">title</text>
   <text x="535" y="270" fill="#000000" font-size="10" font-family="Arial">image</text>
   <text x="535" y="283" fill="#000000" font-size="10" font-family="Arial">description</text>
   <text x="535" y="296" fill="#000000" font-size="10" font-family="Arial">category</text>
   <text x="594" y="244" fill="#000000" font-size="10" font-family="Arial" text-decoration="underline">: int</text>
   <text x="594" y="257" fill="#000000" font-size="10" font-family="Arial">: String</text>
   <text x="594" y="270" fill="#000000" font-size="10" font-family="Arial">: String</text>
   <text x="594" y="283" fill="#000000" font-size="10" font-family="Arial">: String</text>
   <text x="594" y="296" fill="#000000" font-size="10" font-family="Arial">: String</text>
   <line x1="519" x2="637" y1="303" y2="303" stroke="#0080ff" stroke-width="1"/>
   <defs>
      <linearGradient id="Gradient3" x1="0%" x2="100%" y1="0%" y2="100%" gradientUnits="objectBoundingBox">
         <stop offset="5%" stop-color="#ffffff"/>
         <stop offset="95%" stop-color="#aee4ff"/>
      </linearGradient>
   </defs>
   <rect x="531" y="60" fill="url(#Gradient3)" width="119" height="80" stroke="#0080ff" stroke-width="1"/>
   <text x="590" y="71" fill="#000000" font-size="10" font-family="Arial" text-anchor="middle">categories</text>
   <line x1="531" x2="650" y1="77" y2="77" stroke="#0080ff" stroke-width="1"/>
   <text x="536" y="87" fill="#000000" font-size="10" font-family="Arial" text-decoration="underline">-</text>
   <text x="536" y="100" fill="#000000" font-size="10" font-family="Arial">-</text>
   <text x="547" y="87" fill="#000000" font-size="10" font-family="Arial" text-decoration="underline">idGategory</text>
   <text x="547" y="100" fill="#000000" font-size="10" font-family="Arial">name</text>
   <text x="607" y="87" fill="#000000" font-size="10" font-family="Arial" text-decoration="underline">: int</text>
   <text x="607" y="100" fill="#000000" font-size="10" font-family="Arial">: String</text>
   <line x1="531" x2="650" y1="107" y2="107" stroke="#0080ff" stroke-width="1"/>
   <defs>
      <linearGradient id="Gradient4" x1="0%" x2="100%" y1="0%" y2="100%" gradientUnits="objectBoundingBox">
         <stop offset="5%" stop-color="#ffffff"/>
         <stop offset="95%" stop-color="#aee4ff"/>
      </linearGradient>
   </defs>
   <rect x="2" y="104" fill="url(#Gradient4)" width="145" height="52" stroke="#0080ff" stroke-width="1"/>
   <text x="74" y="115" fill="#000000" font-size="10" font-family="Arial" text-anchor="middle">favourite</text>
   <line x1="2" x2="147" y1="121" y2="121" stroke="#0080ff" stroke-width="1"/>
   <text x="7" y="131" fill="#000000" font-size="10" font-family="Arial" text-decoration="underline">-</text>
   <text x="18" y="131" fill="#000000" font-size="10" font-family="Arial" text-decoration="underline">idfavourite</text>
   <text x="76" y="131" fill="#000000" font-size="10" font-family="Arial" text-decoration="underline">: int</text>
   <line x1="2" x2="147" y1="138" y2="138" stroke="#0080ff" stroke-width="1"/>
   <defs>
      <linearGradient id="Gradient5" x1="0%" x2="100%" y1="0%" y2="100%" gradientUnits="objectBoundingBox">
         <stop offset="5%" stop-color="#ffffff"/>
         <stop offset="95%" stop-color="#aee4ff"/>
      </linearGradient>
   </defs>
   <rect x="121" y="388" fill="url(#Gradient5)" width="93" height="51" stroke="#0080ff" stroke-width="1"/>
   <text x="167" y="399" fill="#000000" font-size="10" font-family="Arial" text-anchor="middle">reports</text>
   <line x1="121" x2="214" y1="405" y2="405" stroke="#0080ff" stroke-width="1"/>
   <text x="126" y="415" fill="#000000" font-size="10" font-family="Arial" text-decoration="underline">-</text>
   <text x="137" y="415" fill="#000000" font-size="10" font-family="Arial" text-decoration="underline">reports id</text>
   <text x="188" y="415" fill="#000000" font-size="10" font-family="Arial" text-decoration="underline">: int</text>
   <line x1="121" x2="214" y1="422" y2="422" stroke="#0080ff" stroke-width="1"/>
   <defs>
      <linearGradient id="Gradient6" x1="0%" x2="100%" y1="0%" y2="100%" gradientUnits="objectBoundingBox">
         <stop offset="5%" stop-color="#ffffff"/>
         <stop offset="95%" stop-color="#aee4ff"/>
      </linearGradient>
   </defs>
   <rect x="327" y="433" fill="url(#Gradient6)" width="120" height="103" stroke="#0080ff" stroke-width="1"/>
   <text x="387" y="444" fill="#000000" font-size="10" font-family="Arial" text-anchor="middle">message</text>
   <line x1="327" x2="447" y1="450" y2="450" stroke="#0080ff" stroke-width="1"/>
   <text x="332" y="460" fill="#000000" font-size="10" font-family="Arial" text-decoration="underline">-</text>
   <text x="332" y="473" fill="#000000" font-size="10" font-family="Arial">-</text>
   <text x="332" y="486" fill="#000000" font-size="10" font-family="Arial">-</text>
   <text x="332" y="499" fill="#000000" font-size="10" font-family="Arial">-</text>
   <text x="332" y="512" fill="#000000" font-size="10" font-family="Arial">-</text>
   <text x="343" y="460" fill="#000000" font-size="10" font-family="Arial" text-decoration="underline">message id</text>
   <text x="343" y="473" fill="#000000" font-size="10" font-family="Arial">name</text>
   <text x="343" y="486" fill="#000000" font-size="10" font-family="Arial">email</text>
   <text x="343" y="499" fill="#000000" font-size="10" font-family="Arial">subject</text>
   <text x="343" y="512" fill="#000000" font-size="10" font-family="Arial">message</text>
   <text x="404" y="460" fill="#000000" font-size="10" font-family="Arial" text-decoration="underline">: int</text>
   <text x="404" y="473" fill="#000000" font-size="10" font-family="Arial">: String</text>
   <text x="404" y="486" fill="#000000" font-size="10" font-family="Arial">: String</text>
   <text x="404" y="499" fill="#000000" font-size="10" font-family="Arial">: String</text>
   <text x="404" y="512" fill="#000000" font-size="10" font-family="Arial">: String</text>
   <line x1="327" x2="447" y1="519" y2="519" stroke="#0080ff" stroke-width="1"/>
   <defs>
      <linearGradient id="Gradient7" x1="0%" x2="100%" y1="0%" y2="100%" gradientUnits="objectBoundingBox">
         <stop offset="5%" stop-color="#ffffff"/>
         <stop offset="95%" stop-color="#aee4ff"/>
      </linearGradient>
   </defs>
   <rect x="437" y="2" fill="url(#Gradient7)" width="70" height="51" stroke="#0080ff" stroke-width="1"/>
   <text x="472" y="13" fill="#000000" font-size="10" font-family="Arial" text-anchor="middle">category-user</text>
   <line x1="437" x2="507" y1="19" y2="19" stroke="#0080ff" stroke-width="1"/>
   <line x1="437" x2="507" y1="36" y2="36" stroke="#0080ff" stroke-width="1"/>
</svg>
