<?xml version="1.0" encoding="utf-8"?>
<!-- Generator: Adobe Illustrator 25.3.1, SVG Export Plug-In . SVG Version: 6.00 Build 0)  -->
<svg version="1.1" id="Layer_1" xmlns="http://www.w3.org/2000/svg" xmlns:xlink="http://www.w3.org/1999/xlink" x="0px" y="0px"
	 viewBox="0 0 500 500" style="enable-background:new 0 0 500 500;" xml:space="preserve">
<style type="text/css">
	.st0{fill:#F0F0F0;}
	.st1{fill:#E0E0E0;}
	.st2{fill:#5231B9;}
	.st3{fill:#FF1902;}
	.st4{fill:#FFFFFF;}
	.st5{opacity:0.3;enable-background:new    ;}
	.st6{opacity:0.3;fill:#5231B9;enable-background:new    ;}
	.st7{opacity:0.2;}
	.st8{fill:#455A64;}
	.st9{fill:#37474F;}
	.st10{fill:#263238;}
	.st11{fill:#FFA8A7;}
	.st12{opacity:0.1;enable-background:new    ;}
	.st13{fill:#F28F8F;}
	.st14{opacity:0.2;fill:#FFFFFF;enable-background:new    ;}
	.st15{opacity:0.1;fill:#FFFFFF;enable-background:new    ;}
	.st16{opacity:5.000000e-02;fill:#FFFFFF;enable-background:new    ;}
</style>
<g id="freepik--Floor--inject-2">
	<path class="st0" d="M405.3,264.6c86.3,48.9,86.8,128,1,176.9s-225.3,48.8-311.6,0s-86.8-128-1-176.9S319,215.8,405.3,264.6z"/>
</g>
<g id="freepik--Shadows--inject-2">
	<path class="st1" d="M107.3,377.1l13.9,8.3c2.2,1.3,4.8,1.3,7,0l112.8-67.5c1.1-0.7,1.5-2.2,0.8-3.3c-0.2-0.3-0.5-0.6-0.8-0.8
		l-13.9-8.3c-2.2-1.3-4.8-1.3-7,0L107.3,373c-1.1,0.7-1.5,2.2-0.8,3.3C106.7,376.6,107,376.9,107.3,377.1z"/>
	<path class="st1" d="M369.8,356.8c23.3,13.5,23.4,35.3,0.3,48.7s-60.8,13.5-84.1,0s-23.4-35.3-0.3-48.7S346.5,343.3,369.8,356.8z"
		/>
</g>
<g id="freepik--Plants--inject-2">
	<path class="st2" d="M93.2,303.5c-2.6-2.5-5.5-5.1-5.7-8.7c0-3.3,2.1-6.2,5.1-7.3c3-1,6.4-0.8,9.2,0.7c2.8,1.5,5.3,3.5,7.4,5.9
		c12.6,14,17.8,33.2,13.9,51.7c-0.3,1.2-0.7,2.5-1.7,3.1c-1.7,0.9-3.7-0.7-4.9-2.2c-2.6-3.4-4.5-7.2-5.7-11.3
		c-1-3.5-0.6-7.2-1.9-10.5C105.8,316.9,99.3,309.3,93.2,303.5z"/>
	<path class="st3" d="M93.2,303.5c-2.6-2.5-5.5-5.1-5.7-8.7c0-3.3,2.1-6.2,5.1-7.3c3-1,6.4-0.8,9.2,0.7c2.8,1.5,5.3,3.5,7.4,5.9
		c12.6,14,17.8,33.2,13.9,51.7c-0.3,1.2-0.7,2.5-1.7,3.1c-1.7,0.9-3.7-0.7-4.9-2.2c-2.6-3.4-4.5-7.2-5.7-11.3
		c-1-3.5-0.6-7.2-1.9-10.5C105.8,316.9,99.3,309.3,93.2,303.5z"/>
	<path class="st4" d="M119.9,344.3L119.9,344.3c-0.4,0-0.7-0.3-0.7-0.7c0,0,0,0,0,0c-0.2-20.2-9.4-39.3-25.2-51.9
		c-0.3-0.2-0.4-0.7-0.1-1c0,0,0,0,0,0c0.2-0.3,0.7-0.4,1-0.1c0,0,0,0,0,0c16.1,12.9,25.5,32.4,25.7,53
		C120.7,343.9,120.4,344.2,119.9,344.3C120,344.3,119.9,344.3,119.9,344.3z"/>
	<path class="st2" d="M111.5,371.5c-4.3,1.4-9.8,0.5-12.3-3.3c-3-4.5-1.1-11.3-5.1-15c-2.2-2-5.5-2.2-8.4-2.8s-6.2-2.2-6.6-5.2
		c-0.6-3.9,4.2-7.2,3.6-11.1s-6-5.1-7.6-8.6c-1.4-3.3,1.1-7.2,4.5-8.4s7.1-0.4,10.4,0.9s6.6,2.9,10.1,3.3s7.9-0.3,10.6,2.3
		c3.6,3.4,1.6,9.8,4.3,13.9c1.9,2.7,5.4,3.7,8.1,5.6c3.4,2.5,5.4,6.4,5.4,10.6c-0.1,4.5-2.4,7.7-5.8,10.3
		C119.2,366.8,116,370.1,111.5,371.5z"/>
	<path class="st5" d="M111.5,371.5c-4.3,1.4-9.8,0.5-12.3-3.3c-3-4.5-1.1-11.3-5.1-15c-2.2-2-5.5-2.2-8.4-2.8s-6.2-2.2-6.6-5.2
		c-0.6-3.9,4.2-7.2,3.6-11.1s-6-5.1-7.6-8.6c-1.4-3.3,1.1-7.2,4.5-8.4s7.1-0.4,10.4,0.9s6.6,2.9,10.1,3.3s7.9-0.3,10.6,2.3
		c3.6,3.4,1.6,9.8,4.3,13.9c1.9,2.7,5.4,3.7,8.1,5.6c3.4,2.5,5.4,6.4,5.4,10.6c-0.1,4.5-2.4,7.7-5.8,10.3
		C119.2,366.8,116,370.1,111.5,371.5z"/>
	<path class="st4" d="M109.5,340.8L109.5,340.8c-0.7-1-1.4-1.9-2.1-2.8c-6.4-7.9-15.1-13.7-24.9-16.6c-0.4-0.1-0.8,0-0.9,0.4
		c-0.1,0.4,0,0.8,0.4,0.9c0,0,0.1,0,0.1,0c9.5,2.8,18,8.4,24.2,16.1c0.2,0.2,0.4,0.5,0.6,0.8c-7.8-2.9-15.7-1.2-19.9,2.2
		c-0.3,0.2-0.4,0.7-0.1,1c0,0,0,0,0,0c0.2,0.3,0.6,0.4,0.9,0.2c0,0,0,0,0.1,0c4.2-3.4,12.8-4.9,20.6-1.1c4.9,7.2,7.7,15.5,8.2,24.2
		c0,0.4,0.3,0.6,0.7,0.6l0,0c0.4,0,0.7-0.3,0.7-0.7c0,0,0,0,0,0C117.6,356.9,114.6,348.3,109.5,340.8z"/>
	<path class="st3" d="M374.7,325.4c2.1-2,4.5-4.2,4.6-7.1c0-2.6-1.7-5-4.1-5.9c-2.5-0.8-5.2-0.6-7.5,0.6c-2.3,1.2-4.3,2.8-6,4.8
		c-10.3,11.4-14.5,27-11.3,42c0.1,1,0.6,1.9,1.4,2.5c1.4,0.7,3-0.6,3.9-1.8c2.1-2.8,3.6-5.9,4.6-9.2c0.8-2.8,0.5-5.9,1.5-8.5
		C364.5,336.3,369.7,330.1,374.7,325.4z"/>
	<path class="st4" d="M353,358.5L353,358.5c0.3,0,0.6-0.3,0.6-0.6c0.1-16.4,7.6-31.9,20.4-42.1c0.2-0.2,0.2-0.6,0-0.8
		c-0.2-0.2-0.5-0.2-0.7-0.1c-13.1,10.5-20.7,26.3-20.9,43C352.5,358.2,352.7,358.5,353,358.5z"/>
	<path class="st2" d="M359.9,380.6c3.5,1.1,7.9,0.4,10-2.7c2.4-3.6,0.9-9.2,4.1-12.1c1.8-1.6,4.4-1.8,6.8-2.3s5-1.8,5.4-4.2
		c0.5-3.2-3.4-5.8-2.9-9s4.9-4.1,6.1-7c1.2-2.6-0.9-5.9-3.6-6.8s-5.8-0.3-8.5,0.7s-5.4,2.3-8.2,2.7s-6.4-0.2-8.6,1.8
		c-2.9,2.7-1.3,8-3.5,11.3c-1.5,2.2-4.4,3-6.6,4.5c-2.8,2-4.4,5.2-4.4,8.6c0.1,3.6,2,6.3,4.7,8.4
		C353.6,376.8,356.2,379.5,359.9,380.6z"/>
	<path class="st6" d="M359.9,380.6c3.5,1.1,7.9,0.4,10-2.7c2.4-3.6,0.9-9.2,4.1-12.1c1.8-1.6,4.4-1.8,6.8-2.3s5-1.8,5.4-4.2
		c0.5-3.2-3.4-5.8-2.9-9s4.9-4.1,6.1-7c1.2-2.6-0.9-5.9-3.6-6.8s-5.8-0.3-8.5,0.7s-5.4,2.3-8.2,2.7s-6.4-0.2-8.6,1.8
		c-2.9,2.7-1.3,8-3.5,11.3c-1.5,2.2-4.4,3-6.6,4.5c-2.8,2-4.4,5.2-4.4,8.6c0.1,3.6,2,6.3,4.7,8.4
		C353.6,376.8,356.2,379.5,359.9,380.6z"/>
	<path class="st4" d="M361.4,355.7L361.4,355.7c0.5-0.8,1.1-1.6,1.6-2.3c5.2-6.4,12.3-11.1,20.2-13.4c0.3-0.1,0.6,0.1,0.7,0.4
		c0.1,0.3-0.1,0.6-0.4,0.7c0,0,0,0,0,0c-7.7,2.2-14.6,6.8-19.6,13c-0.2,0.2-0.3,0.4-0.5,0.6c6.3-2.3,12.7-1,16.1,1.8
		c0.2,0.2,0.3,0.5,0.1,0.8c-0.1,0.1-0.3,0.2-0.4,0.2c-0.1,0-0.3,0-0.4-0.1c-3.4-2.7-10.4-3.9-16.7-0.9c-4,5.8-6.3,12.6-6.7,19.6
		c0,0.3-0.3,0.5-0.6,0.5l0,0c-0.3,0-0.5-0.3-0.5-0.6c0,0,0,0,0,0C354.9,368.8,357.3,361.7,361.4,355.7z"/>
</g>
<g id="freepik--Character--inject-2">
	<path class="st2" d="M281,109.2c0.5-0.3,0.8,0,0.8,0.5v5.6c0,0.6-0.3,1.1-0.8,1.4c-0.5,0.3-0.8,0-0.8-0.5v-5.6
		C280.2,110,280.5,109.5,281,109.2z"/>
	<path class="st2" d="M270.3,119.8c0.2-0.1,0.4-0.1,0.6,0l3.1,2.5c0.3,0.2,0.2,0.9-0.1,1.4c-0.1,0.2-0.3,0.4-0.5,0.5
		c-0.2,0.1-0.4,0.1-0.6,0l-3.1-2.5c-0.3-0.2-0.3-0.9,0.1-1.4C269.9,120.1,270.1,120,270.3,119.8z"/>
	<path class="st2" d="M266.6,127.1c0.1-0.1,0.2-0.1,0.4-0.1l4.2,0.4c0.4,0,0.5,0.5,0.3,1.1c-0.1,0.4-0.4,0.7-0.7,0.9
		c-0.1,0.1-0.3,0.1-0.4,0.1l-4.2-0.4c-0.4,0-0.5-0.5-0.3-1.1C266,127.6,266.3,127.3,266.6,127.1z"/>
	<path class="st2" d="M270.9,141c0.3-0.2,0.6-0.2,0.7,0.1c0.2,0.5,0.1,1.1-0.3,1.5l-4.2,5.2c-0.1,0.1-0.3,0.3-0.4,0.4
		c-0.3,0.2-0.6,0.2-0.7-0.1c-0.2-0.5-0.1-1.1,0.3-1.5l4.2-5.2C270.6,141.2,270.7,141.1,270.9,141z"/>
	<path class="st2" d="M269.5,137.4c0.4-0.2,0.8-0.1,0.8,0.3c0,0.6-0.2,1.1-0.7,1.5l-4.8,3.8l-0.1,0.1c-0.4,0.2-0.8,0.1-0.8-0.3
		c0-0.6,0.2-1.1,0.7-1.5l4.8-3.8L269.5,137.4z"/>
	<path class="st2" d="M291.8,107.5c0.2-0.1,0.4-0.1,0.5-0.1c0.4,0.1,0.4,0.7,0.1,1.3l-3.1,6.1c-0.1,0.3-0.4,0.5-0.6,0.7
		c-0.2,0.1-0.4,0.1-0.5,0.1c-0.4-0.1-0.4-0.7-0.1-1.3l3.1-6.1C291.2,107.9,291.5,107.6,291.8,107.5z"/>
	<path class="st2" d="M286.7,107c0.1-0.1,0.2-0.1,0.3-0.1c0.4-0.1,0.6,0.3,0.5,0.9l-1.7,6.2c-0.1,0.4-0.4,0.8-0.8,1.1
		c-0.1,0.1-0.2,0.1-0.3,0.1c-0.4,0.1-0.7-0.3-0.5-0.9l1.6-6.2C286.1,107.6,286.3,107.3,286.7,107z"/>
	<g class="st7">
		<path class="st2" d="M281,109.2c0.5-0.3,0.8,0,0.8,0.5v5.6c0,0.6-0.3,1.1-0.8,1.4c-0.5,0.3-0.8,0-0.8-0.5v-5.6
			C280.2,110,280.5,109.5,281,109.2z"/>
		<path d="M270.3,119.8c0.2-0.1,0.4-0.1,0.6,0l3.1,2.5c0.3,0.2,0.2,0.9-0.1,1.4c-0.1,0.2-0.3,0.4-0.5,0.5c-0.2,0.1-0.4,0.1-0.6,0
			l-3.1-2.5c-0.3-0.2-0.3-0.9,0.1-1.4C269.9,120.1,270.1,120,270.3,119.8z"/>
		<path d="M266.6,127.1c0.1-0.1,0.2-0.1,0.4-0.1l4.2,0.4c0.4,0,0.5,0.5,0.3,1.1c-0.1,0.4-0.4,0.7-0.7,0.9c-0.1,0.1-0.3,0.1-0.4,0.1
			l-4.2-0.4c-0.4,0-0.5-0.5-0.3-1.1C266,127.6,266.3,127.3,266.6,127.1z"/>
		<path d="M270.9,141c0.3-0.2,0.6-0.2,0.7,0.1c0.2,0.5,0.1,1.1-0.3,1.5l-4.2,5.2c-0.1,0.1-0.3,0.3-0.4,0.4c-0.3,0.2-0.6,0.2-0.7-0.1
			c-0.2-0.5-0.1-1.1,0.3-1.5l4.2-5.2C270.6,141.2,270.7,141.1,270.9,141z"/>
		<path d="M269.5,137.4c0.4-0.2,0.8-0.1,0.8,0.3c0,0.6-0.2,1.1-0.7,1.5l-4.8,3.8l-0.1,0.1c-0.4,0.2-0.8,0.1-0.8-0.3
			c0-0.6,0.2-1.1,0.7-1.5l4.8-3.8L269.5,137.4z"/>
		<path d="M291.8,107.5c0.2-0.1,0.4-0.1,0.5-0.1c0.4,0.1,0.4,0.7,0.1,1.3l-3.1,6.1c-0.1,0.3-0.4,0.5-0.6,0.7
			c-0.2,0.1-0.4,0.1-0.5,0.1c-0.4-0.1-0.4-0.7-0.1-1.3l3.1-6.1C291.2,107.9,291.5,107.6,291.8,107.5z"/>
		<path d="M286.7,107c0.1-0.1,0.2-0.1,0.3-0.1c0.4-0.1,0.6,0.3,0.5,0.9l-1.7,6.2c-0.1,0.4-0.4,0.8-0.8,1.1c-0.1,0.1-0.2,0.1-0.3,0.1
			c-0.4,0.1-0.7-0.3-0.5-0.9l1.6-6.2C286.1,107.6,286.3,107.3,286.7,107z"/>
	</g>
	<path class="st8" d="M283.6,388.6c2.5,2.5,6,3.8,9.5,3.6c3.5-0.2,6.9-1.1,10.1-2.6c3.2-1.4,7.3-5.2,10.8-5.1
		c3.4,0,6.8-0.3,10.2-0.7c0.1-4.8-0.4-9.5-1.5-14.1l-16.3-0.4c-4.4,6.2-12.9,11.3-19.4,13.2c-2,0.6-3.6,2.3-4,4.4c0,0,0,0.1,0,0.1
		C283.2,387.5,283.4,388.1,283.6,388.6z"/>
	<path class="st9" d="M314,384.5c-3.5-0.1-7.5,3.7-10.8,5.1c-3.2,1.5-6.6,2.4-10.1,2.6c-3.5,0.2-7-1.1-9.5-3.6
		c-0.3-0.5-0.4-1.1-0.6-1.7c0,0,0-0.1,0-0.1c-0.2,0.7-0.2,1.5,0,2.2c0.1,0.6,0.3,1.2,0.6,1.7c2.5,2.5,6,3.8,9.5,3.6
		c3.5-0.2,6.9-1.1,10.1-2.6c3.2-1.4,7.3-5.2,10.8-5.1c3.3,0,6.7-0.2,10-0.6c0.1-0.7,0.1-1.5,0.2-2.2
		C320.8,384.2,317.4,384.5,314,384.5z"/>
	<path class="st9" d="M356.8,389.6c0,1.7-0.2,3.4-0.5,5.1c-0.5,2.9-2.1,5.6-4.5,7.4c-2.2,1.3-4.6,2-7.2,2c-2.2,0.2-4.4,0-6.5-0.7
		c-1.6-0.6-3-1.7-3.8-3.2c0,0,0,0.1,0,0.1c0.6,2.2,2.3,4,4.4,4.7c2.1,0.7,4.3,0.9,6.6,0.7c2.5,0,5-0.7,7.2-2c2.4-1.8,4-4.4,4.5-7.4
		c0.3-1.7,0.5-3.4,0.5-5c0-2.3,1-4.6,2.6-6.2c0.4-0.4,0.8-0.8,1.1-1.2c0.5-0.6,0.8-1.4,0.7-2.2c0-0.3-0.1-0.6-0.1-0.9
		c-0.6,0.7-2,2.4-2.4,2.8C357.7,385.1,356.8,387.3,356.8,389.6z"/>
	<path class="st8" d="M344.3,372c0.5,3.5,0.1,7-1.3,10.3c-1.4,3.2-3.1,6.2-5.3,8.9c-1.1,1.3-2,2.7-2.8,4.1c-0.8,1.5-1,3.1-0.8,4.8
		c0.9,1.5,2.2,2.6,3.8,3.2c2.1,0.7,4.3,0.9,6.5,0.7c2.5,0,5-0.7,7.2-2c2.4-1.8,4-4.4,4.5-7.4c0.3-1.7,0.5-3.4,0.5-5.1
		c0-2.3,1-4.6,2.6-6.2c0.4-0.3,1.8-2,2.4-2.8c-0.3-2.5-1.1-5-2.4-7.1L344.3,372z"/>
	<path class="st9" d="M300.7,223l1.2,86.1l4,60.2c10,6.5,17.3,1.2,17.3,1.2c3.8-28.5,4.3-46.1,2.2-58l1.9-46.4l5.7,48.2l9.6,59.1
		c10.3,6.8,17.6,0,17.6,0c0-21.9,1.9-46.3-4-62.1c4.1-48.8-2.8-87.4-2.8-87.4L300.7,223z"/>
	<path class="st10" d="M325.2,248.4l2.1,17.7l-0.9,21.8l-3.9-35.8c-9-3.6-10.1-8.6-10.1-8.6C316.2,246.1,320.6,247.8,325.2,248.4z"
		/>
	<path class="st8" d="M308.3,123.5l-2.3-1.2h0h-0.1l0,0c-0.4-0.2-0.8-0.2-1.2,0.1l-20.5,11.8c-0.8,0.5-1.3,1.3-1.3,2.3v9.9
		c0,0.4,0.2,0.8,0.5,1.1l0,0l0,0c0.1,0.1,0.2,0.1,0.2,0.1l2.2,1.2l-0.1-1.8l19.5-11.3c0.8-0.5,1.3-1.3,1.3-2.3v-8.6L308.3,123.5z"/>
	<path class="st8" d="M307.6,136.9l-20.5,11.8c-0.6,0.4-1.4,0.2-1.8-0.5c-0.1-0.2-0.2-0.4-0.2-0.7v-9.9c0-0.9,0.5-1.8,1.3-2.3
		l20.5-11.8c0.6-0.4,1.4-0.2,1.8,0.5c0.1,0.2,0.2,0.5,0.2,0.7v9.9C309,135.6,308.5,136.4,307.6,136.9z"/>
	<path class="st2" d="M286.5,137.6c0-0.5,0.3-0.9,0.7-1.1l20.5-11.8v9.9c0,0.5-0.3,0.9-0.7,1.1l-20.5,11.8L286.5,137.6z"/>
	<path class="st11" d="M298.7,152.3c0.3-0.7,0.7-1.2,1.3-1.6c1.7-1.1,3.1-2.7,3.8-4.6c0.6-2.1,0.9-4.2,0.9-6.3
		c0.1-2.1,0.8-4.2,2.2-5.9c-3.6-1.5-5.1,1.8-6.4,7.1l-12.2,7l0.2,0.4c0.4,0.8,0.4,1.7,0,2.5l-3.5,7.2c3.5,2.5,8,3,12,1.4
		C297.4,157,298,154.7,298.7,152.3z"/>
	<path class="st1" d="M296.2,166.9c0.6-2.6,1.4-6,1.9-9c-4.6,1.6-9.6,1-13.7-1.6c-1.4,2.4-2.7,5-3.9,7.6
		C285,167.3,290.8,168.4,296.2,166.9z"/>
	<path class="st0" d="M295.1,171.2c0,0,0.5-1.8,1.1-4.3c-5.4,1.5-11.2,0.4-15.7-3.1c-3.4,8-5.6,16.5-6.3,25.2
		c-0.3,2.5-0.2,5.1,0.4,7.6c0.6,2.5,2.3,4.6,4.6,5.8c3.2,1.5,7.1,0.2,10-1.8c5.5-3.8,9-9.8,12.2-15.6l8.9-31.7
		C305.1,153.9,300.8,156.9,295.1,171.2z"/>
	<path class="st12" d="M295.1,171.2c-2.1,7.4-5.3,19.1-5.3,19.1C297.2,182.8,295.1,171.2,295.1,171.2z"/>
	<path class="st12" d="M309.1,158c-2.7,1.8-5,4.3-6.6,7.1c-2.9,5-3.8,10.8-4.5,16.5c-0.6,4-1.1,8-1.7,12c1.9-2.8,3.7-5.6,5.3-8.6
		L309.1,158z"/>
	<path class="st0" d="M319.8,152.4l-9.5,1c-7.8,6.8-11.8,21.2-10.1,37c1,10.9,1.1,21.8,0.4,32.7c21,15.3,49.4,4.2,52.8,0.9
		l-2.7-19.4c-0.2-2.2,0.2-4.4,1.1-6.4c2-4.6,5.5-13.7,6-20.7c0.3-6.3-1-12.5-3.8-18.1l-13.8-6L319.8,152.4z"/>
	<path class="st12" d="M351.8,198c1.8-4.1,4.7-11.6,5.7-18.1c-2,1.2-4,2.3-4.8,4.3c-2.6,6.3-3.3,13.2-2,19.8
		C350.6,201.9,351,199.9,351.8,198z"/>
	<path class="st3" d="M317.2,166.1c-7.9,18.2-7.8,37-7.8,37l3.9,8.4l6.1-8c-0.5-12.3-0.2-24.6,0.7-36.8L317.2,166.1z"/>
	<path class="st3" d="M316.9,159.3c-0.2,2.3-0.1,4.6,0.3,6.9c0.9,0.4,1.9,0.6,2.9,0.5c1.9-1.6,3.5-3.6,4.7-5.7l-4.7-1.7L316.9,159.3
		z"/>
	<path class="st1" d="M320.1,159.3c4.1,1.5,7.7,8.8,7.7,8.8c10.7-9.1,12.4-14.8,12.4-14.8c-2.8-3.9-5.8-4.5-5.8-4.5L320.1,159.3z"/>
	<path class="st1" d="M320.1,159.3c-3.1,0.1-5.9,4.4-5.9,4.4c-0.5-7.6,5.9-13.4,5.9-13.4V159.3z"/>
	<path class="st13" d="M334.7,140.2l-14.6,5.2v5.4c3.3-0.5,6.4-1.6,9.2-3.4C331.9,145.7,333.8,143.2,334.7,140.2z"/>
	<path class="st11" d="M334.7,140.2c-0.9,2.9-2.8,5.5-5.3,7.2c-2.8,1.7-6,2.9-9.2,3.4v8.4c0,0,15.4-6.9,15.4-10.2v-9.2L334.7,140.2z
		"/>
	<path class="st10" d="M306.7,118.9c-3.3,0.1-6.4-1.6-8-4.5c-0.3-0.6-0.1-1.3,0.5-1.6c0.2-0.1,0.5-0.2,0.8-0.1
		c1.1,0.2,2.3,0.2,3.4,0c-2.6-3.4-3.7-7.7-3.1-11.9c0.1-0.8,0.9-1.4,1.7-1.3c0.1,0,0.3,0.1,0.4,0.1c4.6,2.3,9.8,3.3,15,3
		c2.8-0.2,5.5-0.8,8.2-1c2.8-0.3,5.5,0.1,8.1,1.2c2.5,1.2,4.2,3.7,4.4,6.5c0.6-0.9,1.6-1.5,2.7-1.6c1.1-0.1,2.3,0.2,3.2,0.9
		c-1.6,0.9-3.1,1.8-4.7,2.6c1.6-0.6,3.7,0.7,4.5,2.2c0.7,1.6,1,3.3,0.9,5.1c0.1,2.3,0,4.6-0.3,6.9c-0.3,2.3-1.2,4.5-2.6,6.3
		c-1.2,1.5-2.9,2.6-4.7,3.2c-2.5,0.7-5.2,0.6-7.7-0.2c-2.5-0.9-4.8-2-7-3.5C316.6,127.6,311.5,123.5,306.7,118.9z"/>
	<path class="st11" d="M306.3,114.3c-1.6,9.5-0.6,19.3,3,28.2c0.8,2.1,1.9,4.2,3.8,5.3s4.5,0.9,6.9,0.6c3.7-0.4,7.4-1.4,10.8-3
		c3.4-1.6,6.1-4.5,7.5-8.1c2.5,0.5,5.1-0.5,6.6-2.6c1.4-2.1,2.2-4.6,2.1-7.2c0-1.6-0.3-3.5-1.8-4.2s-3,0.1-4.1,1
		c-1.9,1.6-3.3,3.7-4,6.1c-1.1-3.9-2.7-7.8-3.8-11.7c-0.4-1.6-0.9-3.2-2.3-4.1c-1.6-1.1-3.8-0.4-5.7,0
		C319,116.1,312.5,116,306.3,114.3z"/>
	<polygon class="st13" points="317.8,126.3 313.2,134.1 318.7,135.1 	"/>
	<path class="st13" d="M324,137.8l-4.2,2c0.7,1,2,1.3,3.2,0.9C324,140.1,324.4,138.9,324,137.8z"/>
	<path class="st5" d="M324,137.8l-4.2,2c0.7,1,2,1.3,3.2,0.9C324,140.1,324.4,138.9,324,137.8z"/>
	<path class="st13" d="M321.5,140.8c0.5,0.1,1,0.1,1.5-0.1c0.8-0.4,1.2-1.3,1.1-2.2c-0.6,0-1.2,0.2-1.6,0.6
		C322,139.5,321.6,140.2,321.5,140.8z"/>
	<path class="st10" d="M325.8,126.6c0.1,0.9-0.5,1.6-1.4,1.7c-0.9,0.1-1.6-0.5-1.7-1.4c-0.1-0.9,0.5-1.6,1.4-1.7c0,0,0,0,0,0
		C324.9,125.1,325.7,125.7,325.8,126.6z"/>
	<path class="st10" d="M312.5,127.4c0.1,0.9-0.6,1.6-1.4,1.7s-1.6-0.6-1.7-1.4c-0.1-0.9,0.5-1.6,1.4-1.7
		C311.7,125.9,312.5,126.5,312.5,127.4z"/>
	<path class="st10" d="M310.4,121.3l-3.2,2.8c-0.4-0.9-0.2-1.9,0.4-2.5C308.4,120.9,309.5,120.8,310.4,121.3z"/>
	<path class="st10" d="M323.8,119.8c1.2,0.7,2.5,1.4,3.7,2.1c0.2-0.9-0.2-1.9-0.9-2.4C325.7,119,324.6,119.1,323.8,119.8z"/>
	<path class="st11" d="M386.1,193.4l5-2.5c1.6-0.8,2.9-2,3.8-3.5l1.6-2.7c1.1-1.8,2.7-3.3,4.6-4.3c2.9-1.4,5.6-3.2,8-5.3l0,0
		c1,1.7,0.8,3.9-0.6,5.2c-1,0.9-2.1,1.8-3.3,2.6l2.4,0.6c1.7,0.4,3.6,0.3,5.2-0.3l6.9-2.7c0.6-0.2,1.3,0.1,1.5,0.7
		c0.1,0.2,0.1,0.4,0.1,0.6c-0.6,3.1-1.8,6-3.4,8.6c-1.5,2.6-4.1,4.4-7,4.9c-3.5,0.7-6.9,1.2-8.8,1.4c-1.1,0.2-2.2,0.5-3.2,1
		l-7.4,3.7L386.1,193.4z"/>
	<path class="st0" d="M381.3,201.2c-0.9-2.1-1.2-4.3-0.9-6.5l-9.5,4.5c-1.7-6.9-3-13.9-4-20.9c-1.1-9.5-0.9-15.9-13.1-19l-1.3,25
		c0,0,1.5,30.5,10.2,33.9c7.2,2.8,12.4-4.1,23.4-11.2C384.1,205.5,382.4,203.5,381.3,201.2z"/>
	<path class="st12" d="M364.7,205.4c0.3-1.4,2.7-4.7,6.3-6.2c0,0-0.3-1.1-0.7-2.9C368.5,197.1,363.8,200,364.7,205.4z"/>
	<path class="st1" d="M388.9,190.6l-8.5,4c-0.7,4.9,1.6,9.7,5.9,12.2c2.5-1.6,5.1-3.1,7.7-4.4C394,202.5,389.5,198.9,388.9,190.6z"
		/>
</g>
<g id="freepik--speech-bubble--inject-2">
	<path class="st2" d="M423.6,68.4c0-0.5-0.2-0.9-0.6-1.1l0,0l-5.8-3.2h0c-0.4-0.2-0.9-0.2-1.2,0l-39.5,22.8c-1.2,0.7-1.9,2-1.9,3.3
		V105l-13.7,14.2c-1.2,1.3-1.4,3.2-0.4,3.5l5.5,3c0.2,0.2,0.5,0.3,0.8,0.2l7.9-1v10.8c0,0.5,0.2,0.9,0.6,1.1l0,0l5.7,3.2h0.1h0.1
		c0.4,0.2,0.8,0.2,1.2-0.1l39.5-22.8c1.2-0.7,1.9-2,1.9-3.3L423.6,68.4z M381.2,90.9l-0.1,0.2L381.2,90.9z M380.8,91.4l-0.1,0.1
		L380.8,91.4z M380.3,92.7c0,0.1,0,0.1,0,0.2C380.3,92.8,380.3,92.7,380.3,92.7L380.3,92.7z M381.5,90.7c0,0,0.1-0.1,0.1-0.1
		C381.6,90.6,381.5,90.6,381.5,90.7L381.5,90.7z"/>
	<path class="st4" d="M410,82.7c-0.2,0.1-0.3,0.2-0.5,0.4c-0.1,0.1-0.2,0.3-0.2,0.4c-0.4,0.9-0.8,1.8-1.1,2.7
		c-0.3,0.8-0.6,1.6-0.9,2.4c-0.1,0.1-0.1,0.3-0.2,0.5c-0.1,0.2-0.2,0.4-0.2,0.6c-0.2,0.5-0.4,0.9-0.5,1.4c-0.1,0.1-0.1,0.2-0.2,0.4
		c-0.2,0.4-0.3,0.8-0.4,1.2c-0.2,0.4-0.1,0.8,0.1,1.1c0.4,0.4,1,0.7,1.5,0.8l0.1,0.1l0.5,0.1l0.8,0.4l0.2,0.1c0,0.1,0.1,0.1,0.2,0.2
		c0.1,0.1,0.1,0.2,0.1,0.2c0,0.1,0,0.3,0,0.4c0,0.2-0.1,0.4-0.1,0.6s-0.2,0.7-0.4,1l-0.2,0.4l-0.6,1.5c-0.2,0.5-0.4,0.9-0.5,1.2
		c-0.1,0.3-0.3,0.6-0.4,0.9l-0.2,0.4c-0.2,0.4-0.4,0.7-0.5,1.1l-0.1,0.3l-0.6,1l-0.2,0.4l-0.6,1.1l-0.2,0.3l-0.6,1.2l-0.2,0.3
		l-1.5,2.2l-0.6,0.8l-0.2,0.2l-1.8,2.3L399,114c-0.1,0.2-0.3,0.3-0.5,0.4c-0.2,0.1-0.5,0.1-0.8,0l-0.5-0.2c0-0.1-0.1-0.1-0.1-0.1
		c-0.6-0.5-1.3-1-2-1.5c-0.3-0.2-0.6-0.2-0.9,0c-0.1,0-0.2,0.1-0.2,0.2c-0.3,0.2-0.6,0.5-0.8,0.9c-0.1,0-0.1,0.1-0.2,0.2
		c-0.5,0.8-1.2,1.5-1.7,2.2s-1,1.2-1.6,1.9c-0.3,0.3-0.6,0.7-0.8,1s-0.6,0.8-0.9,1.2c-0.1,0.1-0.2,0.3-0.3,0.4
		c-0.3,0.3-0.4,0.8-0.4,1.2c0,0.3,0,0.5,0.1,0.8c0,0.3,0.1,0.7,0.2,1c0,0.2,0.1,0.4,0.2,0.6c0,0.1,0.1,0.1,0.1,0.2c0,0,0,0.1,0,0.1
		c0,0.1,0.1,0.1,0.1,0.2c0,0.1,0.2,0.3,0.3,0.3c0.1,0.1,0.2,0.2,0.4,0.3l0.2,0.1h0.2l0.2,0.1h0.1c0.1,0,0.2,0,0.4,0
		c0.1,0,0.1,0,0.2,0c0.1,0,0.3,0,0.4,0c0.2,0,0.3,0,0.5,0c0.2,0,0.3,0,0.5,0h0.3c0.2,0,0.5-0.1,0.7-0.1h0.1l0.2-0.1
		c0.1,0,0.1,0,0.2-0.1l0.2-0.1c0.3-0.1,0.5-0.2,0.7-0.3l0.2-0.1l0.2-0.1c0.1-0.1,0.3-0.2,0.4-0.3c0.2-0.1,0.3-0.2,0.5-0.3
		c0.2-0.1,0.4-0.3,0.5-0.4c0.1-0.1,0.3-0.2,0.5-0.3l0.2-0.2l0.1-0.1l0.2-0.2c0.3-0.2,0.5-0.5,0.7-0.7c0.2-0.2,0.4-0.3,0.5-0.5
		c0.1,0,0.1-0.1,0.1-0.2c0.4-0.3,0.7-0.6,1-1c0.3-0.2,0.5-0.5,0.8-0.8c0.2-0.2,0.4-0.4,0.6-0.6l0.3-0.3c0.1-0.1,0.2-0.2,0.2-0.3
		c0,0,0.1-0.1,0.1-0.1l0.2-0.2c0.1-0.1,0.2-0.2,0.3-0.3c0.2-0.2,0.4-0.4,0.5-0.6l0.2-0.2l0.2-0.2c0.3-0.3,0.6-0.7,0.9-1.1
		c0.1-0.1,0.3-0.3,0.4-0.5c0.2-0.2,0.4-0.4,0.5-0.7c0.3-0.3,0.5-0.7,0.7-1c0.1-0.2,0.2-0.3,0.3-0.3l0.2-0.3c0.1-0.2,0.2-0.4,0.4-0.6
		l0.2-0.3c0.1-0.1,0.1-0.2,0.2-0.3c0.2-0.2,0.3-0.4,0.4-0.6c0.2-0.3,0.4-0.5,0.5-0.8c0.1-0.1,0.1-0.2,0.2-0.2c0,0,0.1-0.1,0.1-0.1
		l0.1-0.1l0.2-0.2c0.2-0.2,0.3-0.5,0.5-0.8l0.2-0.3l0.6-1.1c0.1-0.1,0.2-0.2,0.2-0.3c0.2-0.3,0.3-0.5,0.5-0.8c0-0.1,0.1-0.2,0.1-0.3
		c0.1-0.1,0.2-0.3,0.2-0.4l0.5-1c0.1-0.2,0.2-0.4,0.3-0.6c0.2-0.3,0.3-0.5,0.4-0.8c0.4-0.8,0.8-1.6,1.2-2.4l0.2-0.4
		c0.1-0.3,0.3-0.6,0.4-0.9c0.4-0.9,0.8-1.9,1.1-2.8l0.1-0.2c0.2-0.5,0.4-1.1,0.5-1.7c0.2-0.7,0.4-1.3,0.6-2c0.1-0.2,0.1-0.4,0.2-0.7
		c0-0.1,0.1-0.1,0.1-0.2c0-0.1,0-0.1,0-0.2l0.1-0.3c0.2-0.8,0.4-1.6,0.6-2.5v-0.1c0-0.1,0-0.1,0-0.2c0,0,0-0.1,0-0.1s0-0.2,0-0.2
		c0-0.1,0-0.2,0-0.2c0.1-0.4,0.1-0.7,0.1-1.1c0-0.1,0-0.3,0-0.4c0-0.1,0-0.2,0-0.3c0-0.1,0-0.1,0-0.2c0-0.3-0.1-0.6-0.2-0.9
		c-0.1-0.4-0.2-0.9-0.4-1.3c-0.2-0.7-0.6-1.3-1.1-1.8c-0.1-0.2-0.3-0.3-0.5-0.4c0,0,0-0.1-0.1-0.1c-0.2-0.1-0.4-0.2-0.6-0.2
		c-0.6,0-1.3,0.1-1.8,0.3l-0.2,0.1c-0.2,0-0.4,0.1-0.5,0.2l-0.1,0.1C410.3,82.5,410.1,82.6,410,82.7z"/>
	<path class="st12" d="M380.3,138.9c0,0.4,0.2,0.9,0.6,1.1l-5.7-3.2l0,0c-0.4-0.2-0.6-0.6-0.6-1.1v-10.8l5.8-0.7L380.3,138.9z"/>
	<path class="st14" d="M376.3,86.9l39.5-22.8c0.4-0.2,0.9-0.2,1.2,0h0l5.8,3.2l0,0c-0.4-0.2-0.9-0.2-1.3,0l-39.5,22.8
		c-0.7,0.4-1.3,1.1-1.6,1.8l-5.7-3.3C375.1,88,375.6,87.3,376.3,86.9z"/>
	<path class="st15" d="M374.4,105V90.3c0-0.5,0.1-1.1,0.3-1.6l5.7,3.3c-0.2,0.5-0.3,1-0.3,1.5v14.7L374.4,105z"/>
	<path class="st16" d="M360.8,119.1l13.7-14.1l5.8,3.2l0,0l-13.7,14.1c-1.1,1.1-1.3,2.7-0.7,3.3l-5.5-3
		C359.4,122.3,359.5,120.4,360.8,119.1z"/>
</g>
<g id="freepik--Device--inject-2">
	<path class="st9" d="M234.9,59.8L234.9,59.8c-0.8-2.9-6.1-8.4-11.5-8.3c-0.5,0-1,0.1-1.5,0.3l-104.2,64.4c-1.8,1.1-3.2,2.7-4,4.7
		c-0.7,1.5-1,3.1-1,4.8v244.9c0,6.2,6.6,12.2,12.8,9.3l0,0c0.1-0.1,0.3-0.1,0.4-0.2l104.2-64.5c3.2-2.1,5.1-5.6,5-9.4V61
		C235.1,60.6,235.1,60.2,234.9,59.8z"/>
	<path class="st2" d="M127.2,151.6c0-1.9,0.9-3.7,2.5-4.7l96.7-59.8c1.2-0.7,2.7-0.3,3.4,1c0.2,0.4,0.3,0.9,0.3,1.4v197.5
		c0,1.9-0.9,3.7-2.5,4.7l-96.7,59.9c-1.2,0.7-2.7,0.3-3.4-1c-0.2-0.4-0.3-0.9-0.3-1.4L127.2,151.6z"/>
	<path class="st10" d="M112.7,125.7v244.9c0,6.2,6.6,12.2,12.8,9.3l0,0c-1.3,0.4-2.7-0.3-3.2-1.6c-0.1-0.3-0.1-0.6-0.1-1v-245
		c0-2.1,0.6-4.2,1.7-6l-10.2-5.5C113,122.5,112.7,124.1,112.7,125.7z"/>
	<path class="st8" d="M223.4,51.5c-0.5,0-1,0.1-1.5,0.3l-104.2,64.4c-1.8,1.1-3.2,2.7-4,4.7l10.2,5.5c0.8-1.4,2-2.6,3.3-3.4
		l104.2-64.4c1.1-0.7,2.6-0.3,3.3,0.8c0.1,0.1,0.1,0.2,0.2,0.4l0,0C234.1,56.9,228.8,51.4,223.4,51.5z"/>
	<path class="st10" d="M191.5,99.1c0.7-0.5,1.3-0.1,1.3,0.8c0,1-0.5,1.9-1.3,2.5l-20.4,12.8c-0.7,0.5-1.3,0.1-1.3-0.8
		c0-1,0.5-1.9,1.3-2.5L191.5,99.1z"/>
	<path class="st10" d="M165.8,115.2c0.7-0.5,1.3-0.1,1.3,0.8c0,1-0.5,1.9-1.3,2.5c-0.7,0.5-1.3,0.1-1.3-0.8
		C164.5,116.7,165,115.8,165.8,115.2z"/>
	<path class="st10" d="M178.9,97.2c1.5-0.9,2.6-0.2,2.6,1.6c-0.1,2-1,3.8-2.6,5c-1.5,0.9-2.7,0.2-2.7-1.7
		C176.3,100.2,177.3,98.4,178.9,97.2z"/>
	<path class="st10" d="M178.9,327.8c3-1.9,5.4-0.4,5.4,3.3s-2.4,8.3-5.4,10.2s-5.4,0.3-5.4-3.4C173.7,333.9,175.7,330.2,178.9,327.8
		z"/>
	<path class="st4" d="M188.8,189.9c-0.3,0.2-0.5,0.3-0.7,0.6c-0.2,0.2-0.3,0.4-0.4,0.6c-0.7,1.4-1.2,2.8-1.7,4.2
		c-0.5,1.3-1,2.6-1.4,3.8c-0.1,0.2-0.2,0.5-0.3,0.7c-0.1,0.3-0.3,0.7-0.3,1l-0.8,2.1c-0.1,0.2-0.2,0.4-0.3,0.6
		c-0.3,0.6-0.5,1.2-0.7,1.9c-0.2,0.6-0.2,1.2,0.2,1.7c0.7,0.6,1.5,1.1,2.3,1.3l0.2,0.1c0.2,0.1,0.5,0.1,0.7,0.2l1.3,0.6l0.2,0.2
		c0.1,0.1,0.2,0.2,0.2,0.3c0.1,0.1,0.2,0.2,0.2,0.4c0.1,0.2,0.1,0.4,0,0.6l-0.2,1c-0.2,0.5-0.4,1.1-0.6,1.6l-0.3,0.7
		c-0.3,0.8-0.6,1.5-0.9,2.3s-0.6,1.4-0.8,2c-0.2,0.4-0.4,0.9-0.6,1.3c-0.1,0.2-0.2,0.5-0.3,0.7c-0.3,0.6-0.5,1.1-0.8,1.7l-0.2,0.5
		l-0.8,1.7c-0.1,0.2-0.2,0.4-0.3,0.6l-1,1.8c-0.1,0.1-0.2,0.3-0.3,0.4c-0.4,0.6-0.7,1.2-1.1,1.8l-0.3,0.5c-0.8,1.1-1.5,2.3-2.3,3.4
		l-0.9,1.3l-0.2,0.4l-2.8,3.6l-0.9,1.1c-0.2,0.2-0.4,0.5-0.7,0.6c-0.3,0.2-0.8,0.3-1.1,0.1l-0.7-0.4c0-0.1-0.1-0.1-0.2-0.1
		c-1-0.9-2-1.6-3.1-2.3c-0.4-0.3-0.9-0.3-1.4,0c-0.1,0.1-0.2,0.2-0.4,0.3c-0.5,0.4-0.8,0.9-1.2,1.4c-0.1,0.1-0.2,0.2-0.2,0.4
		c-0.8,1.2-1.8,2.3-2.6,3.4c-0.8,0.9-1.6,1.9-2.4,2.9c-0.4,0.5-0.9,1.1-1.3,1.6c-0.5,0.6-0.9,1.2-1.4,1.8c-0.2,0.2-0.3,0.4-0.5,0.7
		c-0.5,0.5-0.7,1.2-0.6,1.9c0,0.4,0,0.8,0.1,1.2c0,0.5,0.1,1,0.3,1.5c0,0.3,0.1,0.7,0.3,1c0,0.1,0.1,0.2,0.1,0.3
		c0,0.1,0,0.1,0.1,0.2c0,0.1,0.1,0.2,0.2,0.3c0.1,0.2,0.2,0.4,0.4,0.5c0.1,0.2,0.3,0.3,0.5,0.5c0.1,0.1,0.3,0.1,0.4,0.2l0.3,0.1
		c0.1,0.1,0.2,0.1,0.3,0.1h0.1c0.2,0,0.4,0,0.5,0c0.1,0,0.2,0,0.2,0c0.2,0.1,0.5,0.1,0.7,0c0.2,0,0.5,0,0.7,0c0.2,0,0.5,0,0.7-0.1
		h0.4c0.3,0,0.7-0.1,1-0.2h0.1c0.1,0,0.3,0,0.4-0.1c0.1,0,0.2-0.1,0.2-0.1c0.3-0.1,0.3-0.1,0.4-0.1c0.4-0.1,0.7-0.3,1.1-0.4l0.3-0.2
		l0.2-0.1c0.2-0.1,0.4-0.3,0.6-0.4l0.7-0.5c0.3-0.2,0.5-0.4,0.8-0.6c0.2-0.2,0.5-0.3,0.7-0.5c0.1-0.1,0.2-0.2,0.3-0.2l0.1-0.1
		l0.4-0.3c0.4-0.4,0.8-0.7,1.1-1.1c0.3-0.3,0.6-0.5,0.8-0.8c0.1-0.1,0.2-0.2,0.2-0.3c0.5-0.5,1-1,1.5-1.5c0.4-0.4,0.8-0.8,1.1-1.2
		c0.3-0.3,0.6-0.6,0.9-0.9l0.5-0.5c0.1-0.1,0.3-0.2,0.4-0.4c0.1,0,0.1-0.1,0.2-0.2c0.1-0.1,0.2-0.2,0.3-0.3c0.1-0.2,0.3-0.3,0.4-0.5
		c0.3-0.3,0.5-0.6,0.8-0.9l0.2-0.3l0.2-0.3c0.5-0.6,0.9-1.1,1.3-1.8c0.2-0.2,0.4-0.5,0.6-0.8c0.3-0.3,0.5-0.7,0.8-1.1
		c0.4-0.5,0.7-1,1.1-1.5c0.2-0.3,0.3-0.4,0.4-0.6s0.2-0.3,0.3-0.4s0.4-0.6,0.5-0.9l0.4-0.5c0.1-0.2,0.2-0.3,0.3-0.5
		c0.2-0.3,0.4-0.6,0.6-0.9c0.3-0.4,0.5-0.8,0.8-1.3c0.1-0.1,0.2-0.2,0.2-0.4l0.1-0.2c0-0.1,0.1-0.1,0.1-0.2c0.1-0.1,0.2-0.2,0.2-0.4
		c0.3-0.4,0.5-0.8,0.7-1.2l0.3-0.5l1-1.7c0.1-0.2,0.2-0.4,0.3-0.6c0.2-0.4,0.5-0.8,0.7-1.2l0.2-0.4c0.1-0.2,0.2-0.4,0.3-0.6l0.8-1.6
		c0.1-0.3,0.3-0.6,0.4-0.9c0.2-0.4,0.4-0.8,0.6-1.2c0.6-1.2,1.2-2.5,1.8-3.8l0.2-0.6c0.2-0.5,0.4-0.9,0.6-1.4
		c0.6-1.5,1.2-2.9,1.6-4.4c0-0.1,0.1-0.2,0.1-0.4c0.3-0.9,0.6-1.7,0.8-2.6c0.4-1.1,0.6-2.1,0.9-3.2c0.1-0.4,0.2-0.7,0.3-1.1
		c0.1-0.1,0.1-0.2,0.1-0.4c0-0.1,0.1-0.2,0.1-0.2l0.1-0.5c0.4-1.3,0.7-2.6,0.9-3.9v-0.2c0-0.1,0-0.2,0-0.3v-0.2c0-0.1,0-0.2,0.1-0.4
		V199c0.1-0.6,0.1-1.1,0.1-1.7c0-0.2,0-0.5,0-0.7c0-0.2,0-0.3,0-0.5c0-0.1,0-0.2,0-0.3c0-0.5-0.1-1-0.2-1.4c-0.1-0.7-0.3-1.4-0.6-2
		c-0.3-1-0.9-2-1.6-2.8c-0.2-0.3-0.5-0.5-0.8-0.6c0-0.1-0.1-0.1-0.2-0.1c-0.2-0.2-0.6-0.3-0.9-0.3c-1,0-1.9,0.1-2.8,0.5l-0.3,0.1
		c-0.3,0.1-0.5,0.2-0.8,0.3l-0.1,0.1C189.2,189.6,189,189.7,188.8,189.9z"/>
</g>
</svg>
