<?xml version="1.0" encoding="UTF-8" standalone="no"?><svg xmlns:svg="http://www.w3.org/2000/svg" xmlns="http://www.w3.org/2000/svg" xmlns:xlink="http://www.w3.org/1999/xlink" version="1.0" width="64px" height="64px" viewBox="0 0 128 128" xml:space="preserve"><rect x="0" y="0" width="100%" height="100%" fill="#FFFFFF" /><g><path fill="#b7b3df" d="M64.33.25a16 16 0 0 1 16 16c0 4.46-4.93 11.74-9.1 14.62-5.28 3.62-6.56 17.7-6.56 17.7s-.9-13.92-7.24-18.03c-5.4-3.5-9.1-9.8-9.1-14.3a16 16 0 0 1 16-16z"/><path fill="#180c9a" d="M64.33.25a16 16 0 0 1 16 16c0 4.46-4.93 11.74-9.1 14.62-5.28 3.62-6.56 17.7-6.56 17.7s-.9-13.92-7.24-18.03c-5.4-3.5-9.1-9.8-9.1-14.3a16 16 0 0 1 16-16z" transform="rotate(45 64 64)"/><path fill="#180c9a" d="M64.33.25a16 16 0 0 1 16 16c0 4.46-4.93 11.74-9.1 14.62-5.28 3.62-6.56 17.7-6.56 17.7s-.9-13.92-7.24-18.03c-5.4-3.5-9.1-9.8-9.1-14.3a16 16 0 0 1 16-16z" transform="rotate(90 64 64)"/><path fill="#180c9a" d="M64.33.25a16 16 0 0 1 16 16c0 4.46-4.93 11.74-9.1 14.62-5.28 3.62-6.56 17.7-6.56 17.7s-.9-13.92-7.24-18.03c-5.4-3.5-9.1-9.8-9.1-14.3a16 16 0 0 1 16-16z" transform="rotate(135 64 64)"/><path fill="#180c9a" d="M64.33.25a16 16 0 0 1 16 16c0 4.46-4.93 11.74-9.1 14.62-5.28 3.62-6.56 17.7-6.56 17.7s-.9-13.92-7.24-18.03c-5.4-3.5-9.1-9.8-9.1-14.3a16 16 0 0 1 16-16z" transform="rotate(180 64 64)"/><path fill="#180c9a" d="M64.33.25a16 16 0 0 1 16 16c0 4.46-4.93 11.74-9.1 14.62-5.28 3.62-6.56 17.7-6.56 17.7s-.9-13.92-7.24-18.03c-5.4-3.5-9.1-9.8-9.1-14.3a16 16 0 0 1 16-16z" transform="rotate(225 64 64)"/><path fill="#180c9a" d="M64.33.25a16 16 0 0 1 16 16c0 4.46-4.93 11.74-9.1 14.62-5.28 3.62-6.56 17.7-6.56 17.7s-.9-13.92-7.24-18.03c-5.4-3.5-9.1-9.8-9.1-14.3a16 16 0 0 1 16-16z" transform="rotate(270 64 64)"/><path fill="#180c9a" d="M64.33.25a16 16 0 0 1 16 16c0 4.46-4.93 11.74-9.1 14.62-5.28 3.62-6.56 17.7-6.56 17.7s-.9-13.92-7.24-18.03c-5.4-3.5-9.1-9.8-9.1-14.3a16 16 0 0 1 16-16z" transform="rotate(315 64 64)"/><animateTransform attributeName="transform" type="rotate" values="0 64 64;45 64 64;90 64 64;135 64 64;180 64 64;225 64 64;270 64 64;315 64 64" calcMode="discrete" dur="720ms" repeatCount="indefinite"></animateTransform></g></svg>