<?xml version="1.0" encoding="utf-8"?>
<!-- Generator: Adobe Illustrator 25.4.1, SVG Export Plug-In . SVG Version: 6.00 Build 0)  -->
<svg version="1.1" id="Layer_1" xmlns="http://www.w3.org/2000/svg" xmlns:xlink="http://www.w3.org/1999/xlink" x="0px" y="0px"
	 viewBox="0 0 500 300" style="enable-background:new 0 0 500 300;" xml:space="preserve">
<style type="text/css">
	.st0{fill:#FFFFFF;stroke:#FFFFFF;stroke-width:8;}
</style>
<g id="title" transform="translate(0 0)">
	<path id="path5968" class="st0" d="M79.2,107.3c-4.9-2-10.5-3-16.7-3c-5.2,0-9.9,0.9-14.4,2.4c-4.6,1.7-8.2,4.2-10.9,7.3
		c-2.9,3.3-4.2,7.3-4.2,12c0,11.7,9.2,19.3,27.6,22.8c7.1,1.4,12.1,3,15.1,5c2.9,2,4.5,4.5,4.5,7.3c0,3.2-1.6,5.6-4.6,7.3
		c-3,1.9-7.2,2.7-12.7,2.7c-4.2,0-8.1-0.7-11.7-2.2c-3.7-1.4-6.5-3.3-8.2-5.3c-1.7-1.7-3.6-2.6-5.5-2.6c-1.6,0-3.3,0.7-5,2
		c-2,1.4-2.9,3.3-2.9,5.6c0,1.7,0.6,3.3,1.9,4.5c3.2,3.3,7.8,5.9,13.5,7.9s11.8,3,18.4,3c6.5,0,12.1-1,16.7-3
		c4.6-2,8.2-4.9,10.7-8.5c2.3-3.6,3.6-7.6,3.6-12.1c0-5.9-2.3-10.8-6.6-14.5s-11.8-6.6-22.2-8.8c-5.2-1-9.1-2-11.7-3.2
		c-2.7-1.2-4.6-2.3-5.5-3.6c-1-1.3-1.4-2.9-1.4-4.9c0-2.6,1.3-4.8,4.2-6.2c2.9-1.4,6.5-2.3,10.9-2.3c3.7,0,7.1,0.6,9.8,1.4
		c2.6,0.9,5.2,2.4,7.6,4.6c2,1.9,4.2,2.7,6.8,2.7c1.6,0,2.9-0.3,4-1.2c1.6-1.3,2.4-2.7,2.4-4.5c0-1.4-0.7-3-1.9-4.6
		C88.1,112.2,84.1,109.3,79.2,107.3L79.2,107.3z"/>
	<path id="path5970" class="st0" d="M207.2,106.5c-1-1-2.4-1.6-4.5-1.6c-3.7,0-6.2,2.3-7.5,6.6L179.4,161l-13-50.7
		c-0.6-1.6-1.4-2.9-2.6-3.9c-1.2-1-2.7-1.6-4.5-1.6c-2,0-3.6,0.6-4.8,1.6c-1.2,1-2,2.3-2.4,3.9L137.5,160l-15.6-48.5
		c-0.9-2.3-1.9-3.9-3-5c-1.2-1-2.7-1.6-4.5-1.6c-4,0-6,2-6,6c0,1.4,0.1,2.9,0.6,4l21.3,63.9c0.4,1.4,1.3,2.6,2.6,3.5
		c1.3,0.9,2.7,1.3,4.3,1.3c1.4,0,2.9-0.4,4.2-1.3c1.3-0.9,2.2-2,2.7-3.5l14.8-52.3l14.1,52.3c0.3,1.4,1.2,2.6,2.4,3.5
		s2.7,1.3,4.5,1.3c1.4,0,2.9-0.4,4.2-1.3c1.2-0.9,2-2,2.6-3.5L208,115c0.4-1.2,0.7-2.6,0.7-4.2C208.7,109.1,208.2,107.6,207.2,106.5
		z"/>
	<path id="path5972" class="st0" d="M302.4,144.3c0-7.3-1.9-14.3-5.3-20.3s-8.2-10.9-14.3-14.4s-12.7-5.3-20-5.3
		c-7.5,0-14.3,1.9-20.3,5.3c-6,3.5-10.8,8.4-14.3,14.4s-5.2,12.8-5.2,20.3c0,7.5,1.6,14.4,4.8,20.4s7.6,10.8,13.2,14.3
		c5.8,3.6,12,5.3,18.9,5.3h1.2h34.4c1.9,0,3.5-0.7,4.9-2c1.3-1.3,2-2.9,2-4.9v-1V144.3z M240.5,158.2c-2.3-4-3.3-8.6-3.3-13.8
		c0-5,1-9.6,3.3-13.8c2.3-4,5.3-7.3,9.2-9.6c3.9-2.3,8.2-3.6,13.1-3.6c4.8,0,9.1,1.3,13,3.6s6.9,5.6,9.2,9.6
		c2.2,4.2,3.3,8.8,3.3,13.8c0,5.2-1.2,9.8-3.3,13.8c-2.3,4-5.3,7.3-9.2,9.6c-3.9,2.3-8.2,3.5-13,3.5c-4.9,0-9.2-1.2-13.1-3.5
		C245.8,165.5,242.8,162.2,240.5,158.2z"/>
	<path id="path5974" class="st0" d="M409.8,144.3c0-7.5-1.7-14.3-5.2-20.3c-3.5-6-8.4-10.9-14.4-14.4s-12.8-5.3-20.2-5.3h-0.6h-0.3
		h-31.8c-2,0-3.6,0.7-4.9,2c-1.4,1.4-2,3-2,4.9v30.7v2.4V210c0,2.3,0.6,4,2,5.3c1.3,1.4,3,2,5.3,2c2,0,3.7-0.6,5.2-2
		c1.4-1.3,2.2-3,2.2-5.3v-38.9c3.3,4.2,7.3,7.3,12.2,9.6c4.8,2.3,9.9,3.5,15.6,3.5c6.9,0,13.1-1.7,18.7-5.2
		c5.6-3.5,10.1-8.2,13.2-14.3C408.1,158.7,409.8,151.8,409.8,144.3z M395.7,144.3c0,5.2-1.2,9.8-3.5,13.8c-2.3,4-5.3,7.3-9.2,9.6
		s-8.2,3.5-13,3.5c-4.9,0-9.2-1.2-13.1-3.5c-3.9-2.3-6.9-5.6-9.1-9.6c-2.3-4-3.3-8.6-3.3-13.8c0-5,1-9.6,3.3-13.8
		c2.2-4,5.2-7.3,9.1-9.6c3.9-2.3,8.2-3.6,13.1-3.6c4.8,0,9.1,1.3,13,3.6s6.9,5.6,9.2,9.6C394.5,134.7,395.7,139.3,395.7,144.3z"/>
	<path id="path5976" class="st0" d="M441.1,106.9c-1.4,1.4-2,3.2-2,5.3v64.1c0,2.2,0.6,3.9,2,5.3s3.2,2,5.3,2s3.9-0.6,5.3-2
		c1.3-1.4,2-3.2,2-5.3v-64.1c0-2.2-0.7-3.9-2-5.3c-1.4-1.3-3.2-2-5.3-2S442.6,105.6,441.1,106.9z"/>
</g>
</svg>
