<?xml version="1.0" encoding="utf-8"?>
<!-- Generator: Adobe Illustrator 25.4.1, SVG Export Plug-In . SVG Version: 6.00 Build 0)  -->
<svg version="1.1" id="Layer_1" xmlns="http://www.w3.org/2000/svg" xmlns:xlink="http://www.w3.org/1999/xlink" x="0px" y="0px"
	 viewBox="0 0 1350 900" style="enable-background:new 0 0 1350 900;" xml:space="preserve">
<style type="text/css">
	.st0{display:none;}
	.st1{display:inline;}
	.st2{fill-rule:evenodd;clip-rule:evenodd;fill:#450B7C;}
	.st3{fill-rule:evenodd;clip-rule:evenodd;fill:#5231B9;}
	.st4{fill-rule:evenodd;clip-rule:evenodd;fill:#160F30;}
	.st5{opacity:0.54;fill-rule:evenodd;clip-rule:evenodd;fill:#FEFEFE;enable-background:new    ;}
	.st6{fill-rule:evenodd;clip-rule:evenodd;fill:#FF1902;}
	.st7{fill-rule:evenodd;clip-rule:evenodd;fill:#2D2925;}
	.st8{fill-rule:evenodd;clip-rule:evenodd;fill:#522F2C;}
	.st9{fill-rule:evenodd;clip-rule:evenodd;fill:#FFFFFF;}
	.st10{fill-rule:evenodd;clip-rule:evenodd;fill:#EF845C;}
	.st11{fill-rule:evenodd;clip-rule:evenodd;fill:#F5B090;}
	.st12{fill-rule:evenodd;clip-rule:evenodd;fill:#FF714F;}
	.st13{opacity:0.54;fill:#FEFEFE;enable-background:new    ;}
	.st14{fill:#FFFFFF;}
	.st15{fill:url(#SVGID_1_);}
	.st16{fill:#180C9A;}
	.st17{fill:#061530;}
	.st18{fill:#91B3FA;}
	.st19{fill:url(#SVGID_00000142133932723209011720000004224835903120977806_);}
	.st20{fill:url(#SVGID_00000066473820609708044660000009689194872896112039_);}
	.st21{fill:url(#SVGID_00000147200536954422315270000014205346317390169993_);}
	.st22{fill:url(#SVGID_00000113346794294821554060000008818785285990342328_);}
	.st23{fill:url(#SVGID_00000029034674723313569370000004772863844115249285_);}
	.st24{fill:url(#SVGID_00000110466123813570539790000012729697190158701195_);}
	.st25{fill:url(#SVGID_00000083062364847891444670000018216854849202870173_);}
	.st26{fill:url(#SVGID_00000124855100426681940210000002740657737718991291_);}
	.st27{fill:url(#SVGID_00000142143097745179219460000008500445761526917047_);}
	.st28{fill:url(#SVGID_00000060719607206287662490000015738230730579248553_);}
	.st29{fill:url(#SVGID_00000103972763039797785310000001095901664107593097_);}
	.st30{fill:url(#SVGID_00000083076636346234721070000016543660695336959415_);}
	.st31{fill:#FF5C35;}
	.st32{fill:url(#SVGID_00000033348995212291882990000016504229878088306575_);}
	.st33{fill:#FF1902;}
	.st34{fill:url(#SVGID_00000096053150412806167210000015700385140521294230_);}
</style>
<g id="Layer_1_00000150812870931489660030000006051435877761974947_" class="st0">
	<g class="st1">
		<path class="st2" d="M967.6,14.7L967.6,14.7c87.1,0,158.3,71.2,158.3,158.3v163.7H809.3V173C809.3,85.9,880.5,14.7,967.6,14.7
			L967.6,14.7z M863,282.5h209.1V173.4c0-57.4-47.1-104.6-104.6-104.6C910.2,68.8,863,116,863,173.4V282.5z"/>
		<path class="st3" d="M792.1,213.1h351c14,0,25.4,11.4,25.4,25.4v343.2c0,14-11.4,25.4-25.4,25.4h-351c-14,0-25.4-11.4-25.4-25.4
			V238.5C766.7,224.5,778.2,213.1,792.1,213.1L792.1,213.1z"/>
		<path class="st3" d="M967.6,213.1h175.5c14,0,25.4,11.4,25.4,25.4v343.2c0,14-11.4,25.4-25.4,25.4H967.6V213.1z"/>
		<path class="st4" d="M985.5,414.9v50.6c0,9.9-8,17.9-17.9,17.9l0,0c-9.9,0-17.9-8-17.9-17.9v-50.6c-13.7-6.6-23.2-20.6-23.3-36.8
			c-0.2-22,17.9-40.8,39.9-41.5c23.3-0.7,42.4,18,42.4,41.2C1008.8,394.2,999.3,408.3,985.5,414.9L985.5,414.9z"/>
		<path class="st5" d="M848,166.1c3.8-62.5,56.2-112.5,119.6-112.5c19.6,0,38.1,4.7,54.4,13.2c9.6,6.8,22.9-16.4,0-26.1
			c-16.8-7-35.2-10.8-54.4-10.8c-76.4,0-139.3,60.7-142.9,136.2C825.7,176.9,847.8,176.9,848,166.1L848,166.1z"/>
		<polygon class="st6" points="812,385.8 892.8,385.8 892.8,462.8 876.4,462.8 876.4,434.7 858.2,434.7 858.2,462.8 843.7,462.8 
			843.7,434.7 825.6,434.7 825.6,462.8 812,462.8 		"/>
		<path class="st7" d="M526,860.9c0.4,1-21.7,4.2-21.7,4.2l-0.5,27.3l68,0.4c0,0-0.7-11.2-8.6-16.5c-7.9-5.3-31.9-4.8-31.9-4.8
			l-0.7-4.8L526,860.9z"/>
		<path class="st7" d="M297.2,860.8l0.4,10.6c0,0,3.6-0.7,9.5,2.9c5.9,3.6,5.8,11.8,5.2,14.9c-0.6,3.1-0.6,3.1-0.6,3.1l-43.1,0.1
			c-1.5-7.6,7.2-29,6.2-28.6C275.9,863.2,297.2,860.8,297.2,860.8L297.2,860.8z"/>
		<path class="st4" d="M401,505.4c-3.3,8.3-49,194.1-49,194.1l-80.4,170.6l26,1.3l108.4-161l48.9-122.3c0,0,67.9,99.6,67.1,107.1
			s-14.6,132.6-20.2,178.7l29.1-4.9c24.5-105.6,47.3-165.1,43.2-183.5c-8.6-38.2-25.6-77.3-69.4-171.5c-1.6-3.5-8.5-7.6-10.2-11.3
			L401,505.4z"/>
		<path class="st8" d="M399,500.3l-2,19.6c0,0,26.5,3.3,52.1,1.3c25.5-1.9,55.6-7.1,55.6-7.1l-1.9-18.6L399,500.3z"/>
		<path class="st9" d="M469.6,346.2c1.3-9.4,12.4-38.1,12.4-38.1c19.9,1.9,60.4,95.4,65.3,95.3c4.9-0.1,80.4-9.8,80.4-9.8l8.6,10.2
			c-37.8,18.3-97.6,48.7-110.3,30.7C512.5,415.3,469.6,346.2,469.6,346.2L469.6,346.2z"/>
		<path class="st9" d="M362.4,319.9c0,0-3,6.7-3,6.6c0.2-0.3,16.6,16.5,27.6,80.5c11.1,64-7.9,96.1,10.8,103.1
			c12.2,2.6,92.4,2.4,109.8-3.6C519,502.6,498,324.8,482,308C452.8,296.6,407.5,301.5,362.4,319.9L362.4,319.9z"/>
		<path class="st2" d="M438.3,320.8c0,0,6.4,22.6,9.2,67.2c2.8,44.6-3.5,144.2-3.5,144.2l15.6,18.5l17.2-20.1
			c0,0-3.8-97.7-8.9-143.3c-5.1-45.7-19.1-70.5-19.1-70.5L438.3,320.8z"/>
		<path class="st6" d="M524.3,358.6h385.9c9.8,0,17.8,8,17.8,17.8l0,0c0,9.8-8,17.8-17.8,17.8H524.3V358.6z"/>
		<path class="st10" d="M393.5,264.5c0,0,6.9,3.4,10.6,20.3c3.8,17,2.7,25.6,2.7,25.6s7,6.7,22.1,10.8c15.1,4,25.6-0.5,25.6-6.5
			c0-5.9-20.5-44.7-20.5-44.7L393.5,264.5z"/>
		<path class="st9" d="M430,310.8c0,0-11.2,17.8-11.5,16.8s-21.6-19.2-21.6-19.2l6.3-10.3L430,310.8z"/>
		<path class="st6" d="M467,295.3c44.5,0,80.5,36,80.5,80.5s-36,80.5-80.5,80.5c-44.4,0-80.5-36-80.5-80.5S422.6,295.3,467,295.3
			L467,295.3z M467,321.4c30,0,54.4,24.4,54.4,54.4s-24.3,54.4-54.4,54.4c-30,0-54.4-24.3-54.4-54.4
			C412.6,345.8,437,321.4,467,321.4L467,321.4z"/>
		<path class="st11" d="M399.6,398c1.1-0.8,5.6-5.5,5.6-5.5s5.2-8.5,8.9-10c3.8-1.5,12.1,1,13.5,1.5c1.3,0.5,0.8,3.9,0.8,3.9
			s1.9,3.5,1.5,5.1s-1.2,2.2-1.2,2.2s0.8,1.9,0.5,3.6c-0.3,1.8-1.3,2.8-1.3,2.8s0.4,3.4-0.5,4.6c-1,1.2-3.5,2.6-3.5,2.6l-14.9,1.4
			L399.6,398z"/>
		<path class="st12" d="M373.8,261.5c0,0,11.2,13.8,17.4,17.5c6.2,3.8,14,2.2,14,2.2l-19-23.5L373.8,261.5z"/>
		<path class="st11" d="M454.8,279.1c-8.1,16.7-33,22.6-49.2,6.8c-16.3-15.8-29.5-40.7-19.6-61.5s26.4-20.3,41.3-17.1
			C447.4,211.5,462.6,263,454.8,279.1L454.8,279.1z"/>
		<path class="st3" d="M395.3,261.2c1.1-0.4,2.9,2.2,4.9,0.9c2-1.3,5.2-6.7,3.6-13.7s-3.5-10.5-3.5-10.5s15.2-1.1,32.7-17
			s5.1-35,5.1-35l-0.8,4.4c0,0-0.7-4.4-4.4-9.7c-3.8-5.3-4.7-6.2-4.7-6.2c-1,7.6-21.9,24-24.6,22.9c0,0-0.5-8.9-1.3-7.3
			c-4.7,9.4-34.5,17.1-27.6,41.3c0,0-7.7,1.4-9.3,9.1c-1.6,7.7,7.8,21.7,14.9,27.7s12.4,4.7,12.4,4.7L395.3,261.2z"/>
		<path class="st11" d="M383.9,254.8c4.9-3,11.7-0.8,15.1,4.9s2.2,12.7-2.7,15.7c-4.9,3-11.7,0.8-15.1-4.9
			C377.7,264.8,379,257.8,383.9,254.8L383.9,254.8z"/>
		<path class="st9" d="M385.2,364.5c4.8-41.2-18.9-47.3-24.9-43.9s-62,110.9-41,119.5s89.6-29.9,89.6-29.9l-3.8-17.8l-56.1,14
			L385.2,364.5z"/>
		<path class="st11" d="M627.9,393.8c0,0,5.4-6.6,11.5-6.7c0.8-0.8,1.4-1.7,1.5-2.6c0.8-4.7,0.7-11,3.2-11.2s2.3,10.4,2.3,10.4
			l-0.4,4l-1.1,2.1l6-5.5c0,0,2-11.4,3.2-11.6c1.2-0.1,2.3-0.8,2.5,0.7s-1.7,12.1-1.7,12.1s-3.6,5.1-2.8,4.6s8-5.3,8.7-5.9
			c0.7-0.7,4-9.4,5.3-9.4s2.6,0.1,2.4,1.8c-0.1,0.9-2.2,6.5-3.7,9.7c-1.7,3.6-5.9,6.1-5.5,6c0.7-0.1,5.9-0.8,8.2-1.8
			s9.4-3.8,10.7-3.7c1.3,0.1,2.2,2.5-1.8,4.7s-20.2,7.8-20.2,7.8l-20.4,4.7C627.8,405.8,626.4,394.7,627.9,393.8L627.9,393.8z"/>
		<path class="st5" d="M765.1,367.8h138.1c4,0,7.3,3.3,7.3,7.3l0,0c0,4-3.3,7.3-7.3,7.3H765.1c-4,0-7.3-3.3-7.3-7.3l0,0
			C757.9,371,761.1,367.8,765.1,367.8L765.1,367.8z"/>
		<path class="st13" d="M412.7,349.7c-1.7,3.4-5.7,4.6-9,2.8c-3.2-1.8-4.4-6-2.7-9.3c6.6-12.7,16.2-23.1,27.7-30.3
			c11.5-7.2,24.8-11.2,38.7-11.2c14.8,0,28.9,4.5,40.9,12.6c11.9,8,21.7,19.6,27.7,33.7c1.5,3.5,0,7.6-3.4,9.1
			c-3.3,1.5-7.2,0-8.8-3.5c-5-11.6-13-21.1-22.8-27.8c-9.8-6.6-21.5-10.3-33.7-10.3c-11.5,0-22.4,3.3-31.9,9.2
			C426,330.7,418.1,339.2,412.7,349.7L412.7,349.7z"/>
	</g>
</g>
<g id="Layer_1_copy">
	<polygon class="st14" points="547.7,186.8 688.5,185.8 688.5,168.4 547.8,169.4 	"/>
	<polygon class="st14" points="361.9,252.6 504.2,251.3 504.4,233.7 362.2,234.9 	"/>
	<g>
		<g>
			<g>
				
					<linearGradient id="SVGID_1_" gradientUnits="userSpaceOnUse" x1="336.4" y1="629.7" x2="443.3" y2="629.7" gradientTransform="matrix(1 0 0 -1 0 900)">
					<stop  offset="0" style="stop-color:#DAE3FE"/>
					<stop  offset="1" style="stop-color:#E9EFFD"/>
				</linearGradient>
				<polygon class="st15" points="336.4,291.8 442.5,291.8 443.3,248.8 337.1,248.8 				"/>
			</g>
		</g>
	</g>
	<g>
		<path class="st16" d="M1101.5,243.8l-327.8,5.4c-24.9,0.4-45.2,19.8-45.2,43.3v206.4c0,23.5,20.3,41.8,45.2,40.8l327.8-13.2
			c23.5-0.9,42.6-20.1,42.6-42.9V284.2C1144.1,261.5,1125,243.4,1101.5,243.8z"/>
		<path class="st16" d="M1122.1,201.3c-9.9,0.1-18-7.5-18-17.1V139c0-45.3-38.3-82.1-85.8-81.9l-106.8,0.3
			c-48.7,0.1-88.6,38-88.6,84.4V188c0,9.8-8.5,17.9-18.9,18.1c-10.5,0.2-19-7.7-19-17.6v-46.4C785,75.9,842,22,911.4,22h106.8
			c67.4,0,121.7,52.3,121.7,116.6v45C1140,193.2,1132,201.1,1122.1,201.3z"/>
		<path class="st17" d="M994.6,353c0-22.9-20-40.9-44.4-39.3c-21.5,1.5-39.3,18.7-40.5,39.3c-0.9,16,7.9,29.8,21.2,36.8
			c5.7,3,8.5,9.2,7.4,15.4l-9.4,52.5c-1.2,6.7,4.2,12.6,11.3,12.3l24.1-0.9c7-0.3,12.4-6.5,11.2-13.1l-9.4-52
			c-1.1-6.2,2.1-12.4,7.8-15.8C986.4,380.9,994.6,367.7,994.6,353z"/>
	</g>
	<g>
		<g>
			<path class="st16" d="M336.4,884.3c0-0.4,0-0.9-0.1-1.4c-6.8-26.9-40.5-43.7-40.5-43.7l-13.4,1c-7.7,23.8-6.7,38.3-5.5,44.8
				c0,0.2,0.1,0.4,0.1,0.5C288,886.5,310.7,887.2,336.4,884.3z"/>
			<path class="st18" d="M277,885.6c0.6,2.2,2.2,3.9,4.2,4.3c15.7,3.3,40.6,0.6,51.1-0.7c2.3-0.3,4-2.4,4-4.8
				C310.7,887.2,288,886.5,277,885.6z"/>
			
				<linearGradient id="SVGID_00000159466230926115626210000013945944235740178111_" gradientUnits="userSpaceOnUse" x1="-2127.8164" y1="105.924" x2="-2139.3435" y2="5.3236" gradientTransform="matrix(1 0 0 -1 2420.5969 900)">
				<stop  offset="0" style="stop-color:#FEBBBA"/>
				<stop  offset="1" style="stop-color:#FF928E"/>
			</linearGradient>
			<path style="fill:url(#SVGID_00000159466230926115626210000013945944235740178111_);" d="M276.9,820.3l5.7,27.3
				c0.4,2,1.9,3.5,3.8,3.7c2.3,0.2,5.5,0.3,8.8-0.1c2.9-0.4,5-3.4,4.4-6.6l-3.9-24.2h-18.8V820.3z"/>
			<path class="st18" d="M394.2,885.2c-14.8-0.4-22.4-2.2-26.3-3.8c0,1.5,0,3,0,4.5c0.1,1.7,1.3,3,2.8,3l81.1-0.5c2.6,0,4.1-3,3-5.4
				C444.1,883.9,417.1,885.8,394.2,885.2z"/>
			<path class="st16" d="M454.8,883c-0.1-0.2-0.2-0.4-0.3-0.6c-7.2-10-25.4-29.9-61.4-38.6l-17.3-0.5c0,0-7.7,13.4-7.8,38.2
				c3.9,1.6,11.6,3.4,26.3,3.8C417.1,885.8,444.1,883.9,454.8,883z"/>
			
				<linearGradient id="SVGID_00000152951337475153618600000003535742276716664255_" gradientUnits="userSpaceOnUse" x1="-1852.6864" y1="226.4844" x2="-1864.2137" y2="125.8823" gradientTransform="matrix(0.998 -6.290000e-02 -6.290000e-02 -0.998 2248.3689 914.2013)">
				<stop  offset="0" style="stop-color:#FEBBBA"/>
				<stop  offset="1" style="stop-color:#FF928E"/>
			</linearGradient>
			<path style="fill:url(#SVGID_00000152951337475153618600000003535742276716664255_);" d="M371.8,817.9c0.3,1.3,3.9,20.7,5.3,28.2
				c0.3,1.8,1.7,3.1,3.4,3.2c3,0.2,7.7,0.2,11.8-0.9c2.2-0.6,3.7-2.9,3.5-5.4l-1.9-30.7L371.8,817.9z"/>
			<path class="st17" d="M358.7,459.8c0,0,23.8,163.4,40.9,357.8c0.3,3.6-2.6,6.8-6.1,7.5c-5.2,1.1-12.9,2.4-19.3,2.2
				c-3.4-0.1-6.3-2.6-6.8-6c-5.8-34.3-47.6-218.2-58.5-258.7c0,0-12.6,172-8.6,261.2c0.1,2.2-1.5,4.1-3.7,4.4
				c-3.3,0.4-8.7,0.7-15.5,0c-2.6-0.3-4.7-2.2-5-4.8c-4.2-29-28.1-201.7-27.1-326.1c0.1-7,8.2-64.7,8.2-64.7L358.7,459.8z"/>
		</g>
		
			<linearGradient id="SVGID_00000032636335715937412800000000276445845118891702_" gradientUnits="userSpaceOnUse" x1="491.056" y1="788.3721" x2="227.4236" y2="497.5261" gradientTransform="matrix(1 0 0 -1 0 900)">
			<stop  offset="0" style="stop-color:#4042E2"/>
			<stop  offset="1" style="stop-color:#4F52FF"/>
		</linearGradient>
		<path style="fill:url(#SVGID_00000032636335715937412800000000276445845118891702_);" d="M367.9,185.1l3.2,85.5
			c9,3.1,17.6,5.5,25.8,7.3c5.1-16.5,16.4-36.8,25.7-51.8C388.6,214.1,367.9,185.1,367.9,185.1z"/>
		<path class="st16" d="M254,473c-2.4-0.9-4.2-3.1-4.4-5.7c-3.2-31.1-18.9-223.7,77.7-302.8c0,0,5.5-14.7,51.1,21.5
			s21.3,74,10.5,126.1c-13.1,63.1-36.2,114.7-25.9,153.6c0.7,2.7-0.7,5.5-3.2,6.5C324.4,485.3,289.2,485.7,254,473z"/>
		
			<linearGradient id="SVGID_00000067921951397882237300000002841103598288279993_" gradientUnits="userSpaceOnUse" x1="-2081.8213" y1="692.2662" x2="-2055.0496" y2="765.374" gradientTransform="matrix(1 0 0 -1 2420.5969 900)">
			<stop  offset="0" style="stop-color:#FEBBBA"/>
			<stop  offset="1" style="stop-color:#FF928E"/>
		</linearGradient>
		<path style="fill:url(#SVGID_00000067921951397882237300000002841103598288279993_);" d="M365,107.5c0,2.7-38.6,57.5-38.6,57.5
			s6.9,13.6,40,24.7l28.5-58.7L365,107.5z"/>
		
			<linearGradient id="SVGID_00000061441923049955321570000008154195803888045711_" gradientUnits="userSpaceOnUse" x1="361.9364" y1="927.9125" x2="349.4983" y2="832.9314" gradientTransform="matrix(1 0 0 -1 0 900)">
			<stop  offset="0" style="stop-color:#4042E2"/>
			<stop  offset="1" style="stop-color:#4F52FF"/>
		</linearGradient>
		<path style="fill:url(#SVGID_00000061441923049955321570000008154195803888045711_);" d="M345.9,295c-0.2,0-0.5-0.1-0.7-0.2
			c-30.8-20.8-45.3-54.5-45.5-54.8c-0.3-0.6,0-1.4,0.7-1.6c0.6-0.3,1.4,0,1.6,0.7c0.1,0.3,14.4,33.3,44.6,53.7
			c0.6,0.4,0.7,1.2,0.3,1.7C346.7,294.9,346.3,295,345.9,295z"/>
		
			<linearGradient id="SVGID_00000157271849978607535640000015733301372914505884_" gradientUnits="userSpaceOnUse" x1="383.7081" y1="925.0615" x2="371.2699" y2="830.0806" gradientTransform="matrix(1 0 0 -1 0 900)">
			<stop  offset="0" style="stop-color:#4042E2"/>
			<stop  offset="1" style="stop-color:#4F52FF"/>
		</linearGradient>
		<path style="fill:url(#SVGID_00000157271849978607535640000015733301372914505884_);" d="M391.8,248.4c-0.4,0-0.8-0.2-1.1-0.6
			c-0.1-0.1-9.5-14.8-27.5-46.9c-5.5-9.9-12.8-16.1-21.5-18.6c-14.5-4.1-28.6,3.7-28.7,3.8c-0.6,0.3-1.4,0.1-1.7-0.5
			c-0.3-0.6-0.1-1.4,0.5-1.7s15-8.4,30.6-4.1c9.5,2.6,17.2,9.3,23.1,19.8c17.9,32,27.3,46.7,27.4,46.8c0.4,0.6,0.2,1.4-0.4,1.7
			C392.3,248.4,392,248.4,391.8,248.4z"/>
		<g>
			
				<linearGradient id="SVGID_00000098922563895298950580000006408129260500342927_" gradientUnits="userSpaceOnUse" x1="-2015.9963" y1="801.8997" x2="-2175.5088" y2="674.8545" gradientTransform="matrix(1 0 0 -1 2420.5969 900)">
				<stop  offset="0" style="stop-color:#FEBBBA"/>
				<stop  offset="1" style="stop-color:#FF928E"/>
			</linearGradient>
			<path style="fill:url(#SVGID_00000098922563895298950580000006408129260500342927_);" d="M395.4,76.1c0,0,13.7,31.5,14.7,48.1
				c0.9,16.6,4.5,27.3-14.7,30.6c-19.1,3.3-35.3-6.2-44-22.7c0,0-13.7-25.4-10.6-35.8C343.8,85.9,395.4,76.1,395.4,76.1z"/>
			<path class="st17" d="M357.9,120.2l1.1-0.5c1.4-0.6,2-2.3,1.3-3.6c-2.7-5.2-8-17.2-1.2-20c8.8-3.6,43.5-10.7,51-23
				c7.2-11.8,0.8-27.1-8.8-31.5c-0.6-0.3-1.4-0.1-1.7,0.6l-0.8,1.5c-0.5,1-2.1,0.9-2.4-0.2l0,0c-0.3-1.1-1.7-1.3-2.3-0.3
				c-2.3,3.7-8.5,9.7-25.1,12.7c-23.6,4.4-39.2,13.9-39.6,30.2c0,1-1.1,1.6-2,1.1c-1.7-1.1-4.5-1.6-8.3,1.6
				c-6.5,5.5-3.8,19.6,10.4,31.2c0.7,0.6,0.7,1.6-0.1,2.1c-2.6,1.7-6.4,5.7,3.5,11c10.3,5.5,18,5.1,21,4.6c0.7-0.1,1.2-0.8,1.1-1.6
				l-3.2-14.3c-0.2-0.8,0.4-1.6,1.3-1.6C353.1,120.2,357.9,120.2,357.9,120.2z"/>
			
				<linearGradient id="SVGID_00000026150245324779191250000004003065018083974286_" gradientUnits="userSpaceOnUse" x1="-2032.0768" y1="808.8925" x2="-2110.5779" y2="748.8274" gradientTransform="matrix(1 0 0 -1 2420.5969 900)">
				<stop  offset="0" style="stop-color:#FEBBBA"/>
				<stop  offset="1" style="stop-color:#FF928E"/>
			</linearGradient>
			<path style="fill:url(#SVGID_00000026150245324779191250000004003065018083974286_);" d="M358.5,123.3c0,0-5.2-20.2-14.3-14.5
				c-9,5.6,4.7,22.6,12,23.3L358.5,123.3z"/>
		</g>
		
			<linearGradient id="SVGID_00000133513082808213448970000012594085034987988633_" gradientUnits="userSpaceOnUse" x1="-2247.2668" y1="769.2208" x2="-2081.0579" y2="625.6472" gradientTransform="matrix(-1 0 0 -1 -1672.9626 900)">
			<stop  offset="0" style="stop-color:#FEBBBA"/>
			<stop  offset="1" style="stop-color:#FF928E"/>
		</linearGradient>
		<path style="fill:url(#SVGID_00000133513082808213448970000012594085034987988633_);" d="M536.3,178.6c0,0-6.9-12.2-6.4-18.1
			c0.4-5.9-3.3-14.6,0.7-14c3.9,0.6,4.7,0.1,5.8,7.2C537.4,160.9,549.8,191.9,536.3,178.6z"/>
		
			<linearGradient id="SVGID_00000076605776158159049640000008689529633426027924_" gradientUnits="userSpaceOnUse" x1="-2250.697" y1="755.8776" x2="-2088.9072" y2="616.1213" gradientTransform="matrix(-1 0 0 -1 -1672.9626 900)">
			<stop  offset="0" style="stop-color:#FEBBBA"/>
			<stop  offset="1" style="stop-color:#FF928E"/>
		</linearGradient>
		<path style="fill:url(#SVGID_00000076605776158159049640000008689529633426027924_);" d="M537.6,159.2l-0.2,24.4
			c-46.6,50.3-84.3,53.3-114.9,42.5c-9.2,15.1-20.5,35.3-25.7,51.8c124.4,27.4,153.7-87,153.7-87c16.9-7,20.2-11.1,19.5-15.6
			L537.6,159.2z"/>
		
			<linearGradient id="SVGID_00000137822447656598676580000015607658478820452538_" gradientUnits="userSpaceOnUse" x1="-2253.4387" y1="762.076" x2="-2087.2302" y2="618.5029" gradientTransform="matrix(-1 0 0 -1 -1672.9626 900)">
			<stop  offset="0" style="stop-color:#FEBBBA"/>
			<stop  offset="1" style="stop-color:#FF928E"/>
		</linearGradient>
		<path style="fill:url(#SVGID_00000137822447656598676580000015607658478820452538_);" d="M573.4,135.1c-4-1.6-11.8-16.5-13.2-11.6
			c-1.5,4.9,0.6,11.6,0,13.6c-0.6,2.1-10.3,26-8.4,31.3c1.4,3.8,9.1,3.3,10.3,9.5c0.4,2.1,2.1,3.6,4,3.6s3.6-1.5,4-3.6
			C570.2,177.1,577.4,136.7,573.4,135.1z"/>
		<g>
			
				<linearGradient id="SVGID_00000040559158757020509380000002563689328380443024_" gradientUnits="userSpaceOnUse" x1="-28.7936" y1="259.8491" x2="-328.3062" y2="-368.4761" gradientTransform="matrix(0.4597 -0.8881 -0.8881 -0.4597 614.5759 -61.692)">
				<stop  offset="0" style="stop-color:#E1473D"/>
				<stop  offset="1" style="stop-color:#E9605A"/>
			</linearGradient>
			<path style="fill:url(#SVGID_00000040559158757020509380000002563689328380443024_);" d="M446.4,84.3
				c-31.4,62.1-6.5,138,55.6,169.4c50.5,25.5,110.1,13.9,147.5-24.8l215.9,109.2c3.6,1.8,7.9,1.7,11.3-0.4l21.1-12.6
				c0.4-0.2,0.7-0.5,1-0.7c0.1-0.1,0.2-0.1,0.3-0.2c0.2-0.2,0.5-0.4,0.7-0.6c0.1-0.1,0.2-0.1,0.2-0.2c0.3-0.3,0.5-0.6,0.8-0.9l0,0
				c2.7-3.2,3.5-7.7,1.8-11.8l-17.2-43c-1.1-2.7-3.1-4.8-5.6-6.1l-21.6-10.9l-5.7,11.3l-18.6-9.4l5.7-11.3l-17.4-8.8l-5.3,10.4
				l-22.6-11.4l5.3-10.4l-8.4-4.3l-2.7,5.4l-18.9-9.6l2.7-5.4l-14.7-7.4l-5.7,11.3l-10.5-5.3l5.7-11.3l-9.1-4.6l-5.7,11.3l-18.2-9.2
				l5.7-11.3l-25.6-13l0,0l-11-5.5c8.9-53-17-107.9-67.5-133.4C553.7-2.8,477.9,22.1,446.4,84.3z M520,92.9
				c12.6,6.4,17.6,21.7,11.3,34.3c-6.4,12.6-21.7,17.6-34.3,11.3c-12.6-6.4-17.6-21.7-11.3-34.3C492.1,91.5,507.4,86.5,520,92.9z"/>
			<path class="st31" d="M621.5,122.4l102.4,51.7l-5.7,11.3l18.2,9.2l5.7-11.3l9.1,4.6l-5.7,11.3l10.5,5.3l5.7-11.3l14.7,7.4
				l-2.7,5.4l18.9,9.6l2.7-5.4l8.4,4.3l-5.3,10.4l22.6,11.4l5.3-10.4l17.4,8.8L838,246l18.6,9.4l5.7-11.3l21.6,10.9
				c2.6,1.3,4.5,3.5,5.6,6.1l17.2,43c2.1,5.4,0.1,11.5-4.9,14.4l-21.1,12.6c-3.5,2.1-7.7,2.2-11.3,0.4L608.7,199.8L621.5,122.4z"/>
			
				<linearGradient id="SVGID_00000050632771188977948750000005480707495810488222_" gradientUnits="userSpaceOnUse" x1="-255.7648" y1="90.7185" x2="3.4589" y2="-517.2789" gradientTransform="matrix(0.4597 -0.8881 -0.8881 -0.4597 614.5759 -61.692)">
				<stop  offset="0" style="stop-color:#FF9085"/>
				<stop  offset="1" style="stop-color:#FB6FBB"/>
			</linearGradient>
			<path style="fill:url(#SVGID_00000050632771188977948750000005480707495810488222_);" d="M506,247.2
				c62.1,31.4,138,6.5,169.4-55.6s6.5-138-55.6-169.4s-138-6.5-169.4,55.6C418.9,139.9,443.8,215.8,506,247.2z M500.9,131.9
				c-12.6-6.4-17.6-21.7-11.3-34.3C496,85,511.3,80,523.9,86.3c12.6,6.4,17.6,21.7,11.3,34.3C528.8,133.3,513.4,138.3,500.9,131.9z"
				/>
			<path class="st33" d="M653.4,222.4l215.9,109.2c3.6,1.8,7.9,1.7,11.3-0.4l21.1-12.6c3.2-1.9,5.2-5.1,5.6-8.6
				c-19.7-21.3-206.7-103-213.7-119.8c-2.5-6-2.9-15,4.5-29.1l-11-5.5c8.9-53-17-107.9-67.5-133.4c-62.1-31.4-138-6.5-169.4,55.6
				s-6.5,138,55.6,169.4C556.5,272.7,616,261.1,653.4,222.4z M523.9,86.4c12.6,6.4,17.6,21.7,11.3,34.3
				c-6.4,12.6-21.7,17.6-34.3,11.3c-12.6-6.4-17.6-21.7-11.3-34.3C496,85.1,511.3,80,523.9,86.4z"/>
			<path class="st31" d="M517.1,225.1c49.9,25.3,110.9,5.2,136.2-44.7s5.2-110.9-44.7-136.2C558.6,19,497.7,39,472.4,89
				C447.2,138.9,467.2,199.9,517.1,225.1z M500.9,131.9c-12.6-6.4-17.6-21.7-11.3-34.3C496,85,511.3,80,523.9,86.3
				c12.6,6.4,17.6,21.7,11.3,34.3C528.8,133.3,513.4,138.3,500.9,131.9z"/>
		</g>
		
			<linearGradient id="SVGID_00000057112293959748635450000005551369800701025458_" gradientUnits="userSpaceOnUse" x1="-1471.3822" y1="-1420.3361" x2="-1671.9877" y2="-1768.9054" gradientTransform="matrix(0.9478 -0.3187 -0.3187 -0.9478 1417.0796 -1559.4148)">
			<stop  offset="0" style="stop-color:#FEBBBA"/>
			<stop  offset="1" style="stop-color:#FF928E"/>
		</linearGradient>
		<path style="fill:url(#SVGID_00000057112293959748635450000005551369800701025458_);" d="M345.9,295c0,0,118.7,39.7,185.1-10.8
			c4.1-3.1,9.3-4.5,14.4-3.7l25.4,4.1c10.6,1.7,20.8-5.2,23.1-15.7c1.3-6,1.9-12.6,0.6-18.2l-47.9-2.9l1.4-6.2
			c0,0-21.2,5.2-21.6,21.7c0,0-49.7,32.5-140.2-18C386.2,245.4,350.9,273,345.9,295z"/>
	</g>
</g>
</svg>
