<?xml version="1.0" encoding="utf-8"?>
<!-- Generator: Adobe Illustrator 25.4.1, SVG Export Plug-In . SVG Version: 6.00 Build 0)  -->
<svg version="1.1" id="Layer_1" xmlns="http://www.w3.org/2000/svg" xmlns:xlink="http://www.w3.org/1999/xlink" x="0px" y="0px"
	 viewBox="0 0 500 500" style="enable-background:new 0 0 500 500;" xml:space="preserve">
<style type="text/css">
	.st0{fill:#263238;}
	.st1{fill:#37474F;}
	.st2{fill:#455A64;}
	.st3{fill:#FFC4C0;}
	.st4{fill:#FF1902;}
	.st5{fill:#FFFFFF;}
	.st6{opacity:0.1;enable-background:new    ;}
	.st7{fill:#C7C7C7;}
	.st8{fill:#A6A6A6;}
</style>
<g id="freepik--Character--inject-18">
	<path class="st0" d="M305.2,268.9c0,0.8-0.7,1.4-1.4,1.4l-6.2-0.2c-4-14.8-8.7-26.8-7.6-22.2c1.6,7.2,2.1,14.6,1.5,21.9l-12.1-0.7
		c-2.1-25.6-6.2-44.9-6.4-39.1c-0.9,23.3-3.1,30.6-5.5,38.4c-29.3-1.7-67.6-4.4-95.3-6.9c-1.7-14.2-2.9-29.5-3.5-28.5
		c-4.6,7.5-6.8,18.7-7.8,27.5c-8.8-0.9-15.8-1.7-20.1-2.5c0,0-0.8-11.9-0.7-15.8c0.3-9.9,2.4-19.7,6.2-28.9
		c4-9.4,9.9-17.5,15.6-25.8c0-0.1,0.1-0.1,0.1-0.2c0,0,0,0,0-0.1c3.8-5.4,6.9-11.2,9.3-17.3c0,0,0-0.1,0-0.1c1.6-4.4,2.9-9,3.8-13.7
		c3.1-17,14.3-30.8,30.9-33.7c30.2-19.7,62.7-10.2,69.6,12.8c0.7,2.2,1.3,4.8,1.8,7.6v0.1c2.1,10.2,3.5,23.4,5,33.6l0,0
		c0,0,0,0,0,0.1l0,0c0.5,4,1.3,8,2.4,11.9C290.7,207.3,307.1,219.3,305.2,268.9z"/>
	<path class="st0" d="M198.5,126.5c-11.2,4.4-18.5,11.8-21.5,24.2c-1.7,7.2-3,14.2-6.5,20.9c-3.5,6.6-8.8,12.1-14.2,17.5
		c-8.5,8.5-14.6,17.1-17,29.3c-2.4,12.2-3.5,27.1-0.5,39.2 M138.9,257.5c-2.2-12.2-0.5-28.5,2.8-40.6c3.8-13.3,12.3-21.1,21.3-30.6
		c7.1-7.4,12.1-16.5,14.5-26.5c1.4-6.1,2-12.5,5.1-18.1c3.7-6.6,10.1-10.4,16.4-13.8c0.4-0.2,0.6-0.6,0.4-1c-0.2-0.4-0.6-0.6-1-0.4
		l0,0L138.9,257.5z"/>
	<path class="st0" d="M300.6,209.7c-6.4-10.5-13.3-19.6-16.4-32.1c-2.8-11.4-3.9-23.3-6.7-34.7c0-0.1-0.1-0.1-0.1-0.1
		c-0.1,0-0.1,0.1-0.1,0.1c0,0,0,0,0,0c4.2,20.1,3.3,39.9,14.2,57.7c5.9,9.6,11.9,18.6,15.2,29.7c3.4,11.7,4.5,23.9,3.4,36
		c0,0.4,0.5,0.5,0.6,0C314.4,246.8,310.8,226.6,300.6,209.7z"/>
	<path class="st1" d="M378.9,180.7L339.4,255c-1.4,2.1-0.7,4.3,1.6,4.9l40.9,10.1c2.6,0.4,5.2-0.7,6.7-2.8l39.5-74.3
		c1.4-2.1,0.7-4.3-1.6-4.9l-40.9-10.1C383,177.4,380.4,178.5,378.9,180.7z"/>
	<path class="st2" d="M383.7,181.8l-39.5,74.3c-1.4,2.1-0.7,4.3,1.6,4.9l40.9,10.1c2.6,0.4,5.2-0.7,6.7-2.8l39.5-74.4
		c1.4-2.1,0.7-4.3-1.6-4.9L390.5,179C387.9,178.5,385.2,179.6,383.7,181.8z"/>
	<path class="st0" d="M394.1,188.2c-0.5,1.9-2.5,3-4.4,2.5c-1.9-0.5-3-2.5-2.5-4.4c0.5-1.9,2.5-3,4.4-2.5
		C393.4,184.3,394.6,186.3,394.1,188.2C394.1,188.2,394.1,188.2,394.1,188.2z"/>
	<path class="st3" d="M211.8,283.3c17,53.4,61.5,125.7,83.5,128.9c10.4,1.5,28.8,6.5,44-3.8c33.3-22.3,66.6-66.8,76.9-92.7
		c3.9-9.7-46.7-43-55.1-35.6c-19.7,17.2-44.7,52.8-47.7,52.1c-11.1-2.3-50.3-44.7-77.6-74.5C202.7,221.6,205,262,211.8,283.3z"/>
	<path class="st3" d="M428.3,269c0-21.5-3.3-27.1,6.4-45.2c6.4-11.9,1.4-21.1-10.1-13.2c-19,12.9-24.9,40.7-24.2,50.9L428.3,269z"/>
	<path class="st3" d="M409.4,328.2c0,0,16.2-25.9,18.6-48.9c1.6-15.9,1.2-50.8-37.2-79c-9.1-6.7-26.8-9.8-15.9,6.6
		c7.7,11.6,16.2,16.6,19.4,24.2c0,0-23-1.2-29.3,8.2c-5.5,8.2-10.5,16.8-14.8,25.7c1.5,1.2,3,2.2,4.6,3.2c0,0-5.7,9-1.9,24.7
		L409.4,328.2z"/>
	<path class="st3" d="M427,264.1c-4.8-6.8-15.3-21.1-28-29.8c-14.1-9.7-43.7-24.5-50.8-14c-5.1,7.7,5.7,14.3,5.7,14.3
		s-13.6-3.5-16.7,4.4c-2.8,7.2,5.8,11.9,5.8,11.9s-8.5-0.7-9.9,6.8c-1.7,9,16.6,9.1,22.7,19.7C357.3,279.6,427,264.1,427,264.1z"/>
	<path class="st0" d="M391.4,250.7c-5.6-5.7-21.6-15.3-37-16.4c-0.3,0-0.6,0.2-0.2,0.3c13,3.9,25.5,9.3,37.2,16.3
		C391.3,250.9,391.4,250.8,391.4,250.7z"/>
	<path class="st0" d="M381.1,264.7c-5.3-4.4-22.3-13.6-37.9-14.2c-0.4,0-0.5,0.3-0.2,0.3c13.2,3.2,26,7.9,38.1,14
		C381.1,264.8,381.2,264.7,381.1,264.7z"/>
	<path class="st4" d="M235.7,351.6l43.4-54.4c0,0-34.6-38.1-56.7-54c-12.4-8.9-19.4,0.6-17.7,14.3
		C210.9,305.3,235.7,351.6,235.7,351.6z"/>
	<path class="st4" d="M235.7,351.6l43.4-54.4c0,0-34.6-38.1-56.7-54c-12.4-8.9-19.4,0.6-17.7,14.3
		C210.9,305.3,235.7,351.6,235.7,351.6z"/>
	<path class="st5" d="M265.3,285c-2.1-0.1-3.9,1.5-4,3.6c-0.1,2.1,1.5,3.9,3.6,4c0.2,0,0.3,0,0.5,0c2.1-0.1,3.7-1.9,3.6-4
		C268.8,286.6,267.2,285.1,265.3,285z M265.3,292c-1.7,0-3.2-1.4-3.2-3.1c0-1.7,1.4-3.2,3.1-3.2c1.7,0,3.2,1.4,3.2,3.1c0,0,0,0,0,0
		C268.5,290.6,267.1,292,265.3,292z M230.2,296.7c-2.1,0-3.8,1.7-3.8,3.8s1.7,3.8,3.8,3.8c2.1,0,3.8-1.7,3.8-3.8l0,0
		C234,298.5,232.3,296.7,230.2,296.7z M230.2,303.7c-1.7,0-3.2-1.4-3.2-3.2c0-1.7,1.4-3.2,3.2-3.2c1.7,0,3.2,1.4,3.2,3.2
		c0,0,0,0,0,0C233.3,302.3,231.9,303.7,230.2,303.7L230.2,303.7z M233,266.3c-2.1,0-3.8,1.7-3.8,3.8c0,2.1,1.7,3.8,3.8,3.8
		c2.1,0,3.8-1.7,3.8-3.8c0,0,0,0,0,0C236.8,268,235.1,266.3,233,266.3C233,266.3,233,266.3,233,266.3L233,266.3z M233,273.3
		c-1.7,0-3.2-1.4-3.2-3.1c0-1.7,1.4-3.2,3.1-3.2c1.7,0,3.2,1.4,3.2,3.1c0,0,0,0,0,0C236.1,271.8,234.7,273.2,233,273.3L233,273.3z
		 M204.7,250.5c0,0.2,0,0.4-0.1,0.7c1.7,0.5,2.6,2.3,2.1,3.9c-0.3,1-1,1.7-2,2.1c0,0.2,0,0.3,0,0.5s0,0.1,0,0.2
		c2-0.6,3.1-2.8,2.5-4.8C206.9,251.8,205.9,250.8,204.7,250.5L204.7,250.5z M256.9,325.1c-0.1-2.1-2-3.7-4.1-3.5
		c-2.1,0.1-3.7,2-3.5,4.1c0.1,2,1.8,3.5,3.8,3.5c0.2,0,0.4,0,0.6,0l0.7-0.9c-0.4,0.2-0.9,0.3-1.3,0.3c-1.7,0-3.2-1.4-3.2-3.2
		c0-1.7,1.4-3.2,3.2-3.2c1.7,0,3.2,1.4,3.2,3.2c0,0.2,0,0.4,0,0.6L256.9,325.1z"/>
	<path class="st6" d="M274.2,303.4l-38.4,48.2c0,0-24.8-46.3-30.9-94c-1.2-9.4,1.8-16.8,7.7-17.6L274.2,303.4z"/>
	<path class="st0" d="M269.1,292.3c-7.4,7.8-26.8,29.6-37.5,45.5c-0.1,0.1,0.3,0.4,0.3,0.3c10.9-11.8,31-36.8,37.7-45.3
		C269.7,292.5,269.2,292.1,269.1,292.3z"/>
	<path class="st4" d="M77.7,428.1l187.3-0.4l-10.4-64.4c0,0,14.8-18,12-37.5c-3.1-21.3-41.6-75.5-44.8-78.6
		c-13-12.2-26.9-14.4-40.1-10l0,0C120.5,275.7,77.7,428.1,77.7,428.1z"/>
	<path class="st5" d="M261.1,403.1c-1.1,1.3-3.1,1.5-4.4,0.4c-0.7-0.6-1.1-1.5-1.1-2.4c0-1.7,1.4-3.2,3.2-3.2c0,0,0,0,0,0
		c0.6,0,1.2,0.2,1.7,0.5l-0.1-0.8c-0.5-0.2-1-0.3-1.5-0.3c-2.1,0-3.8,1.7-3.8,3.8c0,2.1,1.7,3.8,3.8,3.8c0.9,0,1.9-0.3,2.6-1
		L261.1,403.1z M223.3,383.4c-2.1,0-3.8,1.7-3.8,3.8c0,2.1,1.7,3.8,3.8,3.8c2.1,0,3.8-1.7,3.8-3.8c0,0,0,0,0,0
		C227.1,385.1,225.4,383.4,223.3,383.4z M223.3,390.4c-1.7,0-3.2-1.4-3.2-3.2c0-1.7,1.4-3.2,3.2-3.2c1.7,0,3.2,1.4,3.2,3.2
		c0,0,0,0,0,0C226.4,389,225,390.4,223.3,390.4L223.3,390.4z M253.1,321.4c-2.1,0-3.8,1.7-3.8,3.8c0,2.1,1.7,3.8,3.8,3.8
		c2.1,0,3.8-1.7,3.8-3.8c0,0,0,0,0,0C256.9,323.2,255.2,321.5,253.1,321.4L253.1,321.4z M253.1,328.4c-1.7,0-3.2-1.4-3.2-3.2
		c0-1.7,1.4-3.2,3.2-3.2c1.7,0,3.2,1.4,3.2,3.2C256.3,327,254.9,328.4,253.1,328.4C253.1,328.4,253.1,328.4,253.1,328.4L253.1,328.4
		z M115.8,417.9c-2.1-0.1-3.9,1.5-4,3.6c-0.1,2.1,1.5,3.9,3.6,4c0.2,0,0.3,0,0.5,0c2.1-0.1,3.7-1.9,3.6-4
		C119.3,419.6,117.7,418,115.8,417.9z M115.8,424.9c-1.7,0-3.1-1.4-3.1-3.2c0-1.7,1.4-3.1,3.2-3.1c1.7,0,3.1,1.4,3.1,3.2
		c0,0,0,0,0,0C118.9,423.5,117.5,424.8,115.8,424.9L115.8,424.9z M154.6,405.4c-2.1,0-3.8,1.7-3.9,3.8c0,2.1,1.7,3.8,3.8,3.9
		s3.8-1.7,3.9-3.8c0,0,0,0,0,0C158.4,407.1,156.8,405.4,154.6,405.4L154.6,405.4z M154.6,412.4c-1.7,0-3.2-1.4-3.2-3.1
		c0-1.7,1.4-3.2,3.1-3.2c1.7,0,3.2,1.4,3.2,3.1c0,0,0,0,0,0C157.7,410.9,156.4,412.3,154.6,412.4L154.6,412.4z M125.3,308.9
		c-0.2,0-0.4,0-0.5,0l-0.4,0.8c0.3-0.1,0.6-0.1,0.9-0.1c1.7,0,3.2,1.4,3.2,3.1c0,1.7-1.4,3.2-3.1,3.2c-1.4,0-2.6-0.9-3-2.2l-0.4,0.8
		c1,1.9,3.3,2.6,5.1,1.7c1.9-1,2.6-3.3,1.7-5.1C128.1,309.7,126.7,308.9,125.3,308.9L125.3,308.9z M136,338.1
		c-2.1,0-3.8,1.7-3.8,3.8c0,2.1,1.7,3.8,3.8,3.8c2.1,0,3.8-1.7,3.8-3.8c0,0,0,0,0,0C139.8,339.8,138.1,338.1,136,338.1L136,338.1z
		 M136,345.1c-1.7,0-3.2-1.4-3.2-3.1c0-1.7,1.4-3.2,3.1-3.2s3.2,1.4,3.2,3.1c0,0,0,0,0,0C139.2,343.6,137.8,345,136,345.1L136,345.1
		z M167.4,258.8c-2.1,0.1-3.7,1.9-3.6,4c0.1,1.9,1.7,3.5,3.6,3.6c2.1,0.1,3.9-1.5,4-3.6c0.1-2.1-1.5-3.9-3.6-4
		C167.7,258.8,167.5,258.8,167.4,258.8z M167.4,265.8c-1.7,0-3.2-1.4-3.2-3.2c0-1.7,1.4-3.2,3.2-3.2c1.7,0,3.2,1.4,3.2,3.2
		C170.6,264.4,169.2,265.8,167.4,265.8C167.4,265.8,167.4,265.8,167.4,265.8L167.4,265.8z M171.2,324.9c-2.1,0-3.8,1.7-3.8,3.8
		c0,2.1,1.7,3.8,3.8,3.8c2.1,0,3.8-1.7,3.8-3.8c0,0,0,0,0,0C175,326.6,173.3,324.9,171.2,324.9C171.2,324.9,171.2,324.9,171.2,324.9
		z M171.2,331.9c-1.7,0-3.1-1.4-3.1-3.2c0-1.7,1.4-3.1,3.2-3.1c1.7,0,3.1,1.4,3.1,3.1C174.3,330.5,172.9,331.9,171.2,331.9
		C171.2,331.9,171.2,331.9,171.2,331.9z M203.7,250.3c-2.1,0-3.8,1.7-3.8,3.8c0,2.1,1.7,3.8,3.8,3.8c2.1,0,3.8-1.7,3.8-3.8
		C207.5,252,205.8,250.3,203.7,250.3L203.7,250.3z M203.7,257.2c-1.7,0-3.2-1.4-3.2-3.1c0-1.7,1.4-3.2,3.1-3.2
		c1.7,0,3.2,1.4,3.2,3.1c0,0,0,0,0,0C206.8,255.8,205.4,257.2,203.7,257.2L203.7,257.2z M232.9,266.3c-2.1,0-3.8,1.7-3.8,3.8
		c0,2.1,1.7,3.8,3.8,3.8c2.1,0,3.8-1.7,3.8-3.8c0,0,0,0,0,0C236.7,268,235.1,266.3,232.9,266.3L232.9,266.3z M232.9,273.2
		c-1.7,0-3.2-1.4-3.2-3.1c0-1.7,1.4-3.2,3.1-3.2c1.7,0,3.2,1.4,3.2,3.1c0,0,0,0,0,0C236.1,271.8,234.7,273.2,232.9,273.2
		L232.9,273.2z M220.2,414.1c-2.1,0-3.8,1.7-3.8,3.8c0,2.1,1.7,3.8,3.8,3.8c2.1,0,3.8-1.7,3.8-3.8c0,0,0,0,0,0
		C224,415.8,222.3,414.1,220.2,414.1C220.1,414.1,220.1,414.1,220.2,414.1L220.2,414.1z M220.2,421c-1.7,0-3.2-1.4-3.2-3.1
		c0-1.7,1.4-3.2,3.1-3.2c1.7,0,3.2,1.4,3.2,3.1c0,0,0,0,0,0C223.3,419.6,221.9,421,220.2,421C220.1,421,220.1,421,220.2,421
		L220.2,421z M185.3,389.2c-2.1,0-3.8,1.7-3.8,3.8c0,2.1,1.7,3.8,3.8,3.8c2.1,0,3.8-1.7,3.8-3.8c0,0,0,0,0,0
		C189.1,390.9,187.4,389.2,185.3,389.2C185.3,389.2,185.3,389.2,185.3,389.2L185.3,389.2z M185.3,396.2c-1.7,0-3.2-1.4-3.2-3.1
		c0-1.7,1.4-3.2,3.1-3.2c1.7,0,3.2,1.4,3.2,3.1c0,0,0,0,0,0C188.5,394.8,187.1,396.2,185.3,396.2
		C185.3,396.2,185.3,396.2,185.3,396.2L185.3,396.2z M226.4,343.4c-2.1,0-3.8,1.7-3.8,3.8c0,2.1,1.7,3.8,3.8,3.8
		c2.1,0,3.8-1.7,3.8-3.8c0,0,0,0,0-0.1C230.2,345.1,228.5,343.4,226.4,343.4C226.4,343.4,226.4,343.4,226.4,343.4L226.4,343.4z
		 M226.4,350.3c-1.7,0-3.2-1.4-3.2-3.1c0-1.7,1.4-3.2,3.1-3.2c1.7,0,3.2,1.4,3.2,3.1C229.6,348.9,228.2,350.3,226.4,350.3
		C226.4,350.3,226.4,350.3,226.4,350.3L226.4,350.3z M230.2,296.7c-2.1,0-3.8,1.7-3.8,3.8s1.7,3.8,3.8,3.8c2.1,0,3.8-1.7,3.8-3.8
		l0,0C234,298.5,232.3,296.7,230.2,296.7z M230.2,303.7c-1.7,0-3.2-1.4-3.2-3.2c0-1.7,1.4-3.2,3.2-3.2c1.7,0,3.2,1.4,3.2,3.2
		c0,0,0,0,0,0C233.3,302.3,231.9,303.7,230.2,303.7L230.2,303.7z M256.6,358.8c-2.1,0-3.8,1.7-3.8,3.8c0,1.5,0.9,2.8,2.3,3.4
		l-0.1-0.8c-1.5-0.9-2-2.8-1.1-4.3c0.6-0.9,1.6-1.5,2.7-1.5c0.3,0,0.5,0,0.8,0.1l0.4-0.6C257.4,358.8,257,358.7,256.6,358.8
		L256.6,358.8z M206.9,318c-2.1,0-3.8,1.7-3.8,3.8c0,2.1,1.7,3.8,3.8,3.8c2.1,0,3.8-1.7,3.8-3.8c0,0,0,0,0,0
		C210.7,319.7,209,318,206.9,318L206.9,318z M206.9,325c-1.7,0-3.2-1.4-3.2-3.1c0-1.7,1.4-3.2,3.1-3.2c1.7,0,3.2,1.4,3.2,3.1
		c0,0,0,0,0,0C210,323.5,208.6,324.9,206.9,325L206.9,325z M109.1,358.7c-2.1,0-3.8,1.8-3.8,3.9c0,2.1,1.8,3.8,3.9,3.8
		c2.1,0,3.8-1.7,3.8-3.8C112.9,360.4,111.2,358.7,109.1,358.7C109.1,358.7,109.1,358.7,109.1,358.7z M109.1,365.7
		c-1.7,0-3.2-1.4-3.2-3.1c0-1.7,1.4-3.2,3.1-3.2s3.2,1.4,3.2,3.1c0,0,0,0,0,0C112.2,364.3,110.8,365.7,109.1,365.7L109.1,365.7z
		 M185.3,424.2c-2,0-3.7,1.6-3.8,3.6h0.7c0.1-1.7,1.5-3,3.1-3c1.7,0,3,1.3,3.1,3h0.7C189,425.8,187.3,424.2,185.3,424.2L185.3,424.2
		z M155.9,364.7c-2.1,0-3.8,1.7-3.8,3.8c0,2.1,1.7,3.8,3.8,3.8c2.1,0,3.8-1.7,3.8-3.8c0,0,0,0,0,0
		C159.7,366.4,158,364.7,155.9,364.7z M155.9,371.6c-1.7,0-3.2-1.4-3.2-3.2c0-1.7,1.4-3.2,3.2-3.2c1.7,0,3.2,1.4,3.2,3.2
		C159,370.2,157.6,371.6,155.9,371.6C155.9,371.6,155.9,371.6,155.9,371.6z M157.8,294.8c-2.1,0-3.8,1.7-3.8,3.8
		c0,2.1,1.7,3.8,3.8,3.8c2.1,0,3.8-1.7,3.8-3.8C161.6,296.5,159.9,294.8,157.8,294.8C157.8,294.8,157.8,294.8,157.8,294.8z
		 M157.8,301.7c-1.7-0.1-3.1-1.6-2.9-3.4c0.1-1.6,1.4-2.8,2.9-2.9c1.7-0.1,3.2,1.2,3.4,2.9s-1.2,3.2-2.9,3.4
		C158,301.7,157.9,301.7,157.8,301.7z M90.2,391.7c-0.2,0-0.5,0-0.7,0.1l-0.3,0.7c0.3-0.1,0.6-0.2,1-0.2c1.7-0.1,3.3,1.2,3.4,2.9
		c0.1,1.7-1.2,3.3-2.9,3.4c-0.1,0-0.3,0-0.4,0c-1.1,0-2.1-0.5-2.6-1.4l-0.3,0.7c0.7,0.8,1.7,1.3,2.8,1.3c2.1,0.1,3.9-1.5,4-3.6
		c0.1-2.1-1.5-3.9-3.6-4C90.5,391.7,90.3,391.7,90.2,391.7L90.2,391.7z M131.6,385.4c-2.1,0-3.8,1.7-3.8,3.8c0,2.1,1.7,3.8,3.8,3.8
		c2.1,0,3.8-1.7,3.8-3.8c0,0,0,0,0,0C135.4,387.1,133.7,385.4,131.6,385.4C131.6,385.4,131.6,385.4,131.6,385.4L131.6,385.4z
		 M131.6,392.3c-1.7,0-3.1-1.4-3.1-3.2c0-1.7,1.4-3.1,3.2-3.1c1.7,0,3.1,1.4,3.1,3.1C134.8,390.9,133.4,392.3,131.6,392.3
		C131.6,392.3,131.6,392.3,131.6,392.3L131.6,392.3z M192.3,355.6c-2.1,0-3.8,1.7-3.8,3.8c0,2.1,1.7,3.8,3.8,3.8
		c2.1,0,3.8-1.7,3.8-3.8c0,0,0,0,0,0C196,357.3,194.3,355.6,192.3,355.6L192.3,355.6z M192.3,362.5c-1.7,0-3.1-1.4-3.1-3.1
		c0-1.7,1.4-3.1,3.1-3.1c1.7,0,3.1,1.4,3.1,3.1l0,0C195.4,361.1,194,362.5,192.3,362.5L192.3,362.5z M182.3,237
		c-0.5,0.7-1.4,1.2-2.3,1.3l0,0l-0.9,0.6c0.2,0,0.4,0,0.7,0c1.5,0,2.8-0.9,3.5-2.2L182.3,237z M194.1,279.3c-2.1,0-3.8,1.7-3.8,3.8
		c0,2.1,1.7,3.8,3.8,3.8c2.1,0,3.8-1.7,3.8-3.8c0,0,0,0,0,0C197.9,281,196.2,279.3,194.1,279.3L194.1,279.3z M194.1,286.3
		c-1.7,0-3.2-1.4-3.2-3.2c0-1.7,1.4-3.2,3.2-3.2c1.7,0,3.1,1.4,3.2,3.2C197.3,284.9,195.9,286.3,194.1,286.3L194.1,286.3z"/>
	<path class="st0" d="M242.2,273.2c3.6,6,7.6,11.8,11.4,17.8c-1.5-4.3-3-8.4-4.7-12.6c0-0.1,0.1-0.2,0.1-0.1
		c2.7,5,4.8,10.2,6.5,15.6c2.8,4.5,5.4,9.2,7.6,14c2.7,5.8,4.4,12,5.1,18.3c0.4,6.4-0.5,12.8-2.7,18.9c-2.6,6.9-5.7,13.6-9.5,20
		c-0.5,0.9-1.7,0.1-1.3-0.8c5.3-11.4,11.2-23.2,10.7-36.1c-0.5-12.8-6.5-24.4-12.2-35.4c-3.4-6.7-7.2-13.2-11.4-19.4
		C241.6,273.2,242,273,242.2,273.2z"/>
	<path class="st0" d="M225,358.3c-7.7,0.7-15.3,1.9-22.7,3.7c-3.7,1-7.3,2.1-11,3.3c-1.8,0.6-3.6,1.1-5.5,1.7
		c-1.9,0.6-3.9,1-5.9,1.1c-0.1,0-0.1,0.1-0.1,0.2c0,0,0,0.1,0.1,0.1c1.9,0.1,3.8,0.1,5.7-0.1c1.8-0.2,3.6-0.6,5.4-1
		c3.8-0.9,7.5-2,11.3-3c7.6-1.9,15.1-3.9,22.8-5.3C225.5,358.9,225.4,358.3,225,358.3z"/>
	<path class="st0" d="M244,365.1c-6.3-0.7-12.7-1-19-0.9c-3.2,0-6.3,0.3-9.5,0.6c-1.5,0.1-3,0.3-4.5,0.5c-1.6,0.2-3.3,0.6-4.9,0.8
		c-0.2,0-0.2,0.3,0,0.3c1.6-0.1,3.2,0,4.7,0l4.7-0.1c3.2,0,6.3-0.1,9.5-0.2c6.3-0.2,12.6-0.4,19-0.4
		C244.3,365.6,244.3,365.2,244,365.1z"/>
	<path class="st3" d="M159.3,254.1c-47.8,49.9-107,154.4-95.3,175.2c13.1,23.2,81.3-47.6,79.2-51c-1.8-2.8,22.5-66.2,39.8-112.2
		S171,241.7,159.3,254.1z"/>
	<path class="st4" d="M100.8,314l68.5,12.3c0,0,17-48.5,20.5-75.5c1.9-15.1-7-15.7-18.1-7.7C132.6,271.3,100.8,314,100.8,314z"/>
	<path class="st5" d="M125.3,308.9c-2.1,0-3.8,1.7-3.8,3.8c0,2.1,1.7,3.8,3.8,3.8c2.1,0,3.8-1.7,3.8-3.8c0,0,0,0,0,0
		C129.1,310.6,127.4,308.9,125.3,308.9z M125.3,315.9c-1.7,0-3.2-1.4-3.2-3.1c0-1.7,1.4-3.2,3.1-3.2s3.2,1.4,3.2,3.1c0,0,0,0,0,0
		C128.4,314.5,127,315.9,125.3,315.9L125.3,315.9z M167.4,258.8c-2.1,0.1-3.7,1.9-3.6,4c0.1,1.9,1.7,3.5,3.6,3.6
		c2.1,0.1,3.9-1.5,4-3.6c0.1-2.1-1.5-3.9-3.6-4C167.7,258.8,167.5,258.8,167.4,258.8z M167.4,265.8c-1.7,0-3.2-1.4-3.2-3.2
		c0-1.7,1.4-3.2,3.2-3.2c1.7,0,3.2,1.4,3.2,3.2C170.6,264.4,169.2,265.8,167.4,265.8C167.4,265.8,167.4,265.8,167.4,265.8
		L167.4,265.8z M137.5,273.8c-0.6,0-1.1,0.1-1.7,0.4l0,0l-1.8,1.8l0,0c-0.2,0.5-0.4,1.1-0.4,1.6c0,2.1,1.7,3.8,3.8,3.8
		c2.1,0,3.8-1.7,3.8-3.8C141.3,275.5,139.6,273.8,137.5,273.8C137.5,273.8,137.5,273.8,137.5,273.8L137.5,273.8z M137.5,280.8
		c-1.7,0-3.2-1.4-3.2-3.2c0-1.7,1.4-3.2,3.2-3.2c1.7,0,3.2,1.4,3.2,3.2C140.6,279.3,139.2,280.7,137.5,280.8
		C137.5,280.8,137.5,280.8,137.5,280.8L137.5,280.8z M168.4,326.2l0.8,0.1c0,0,0.1-0.1,0.1-0.1l0.3-1
		C169.2,325.5,168.8,325.8,168.4,326.2L168.4,326.2z M157.8,294.8c-2.1,0-3.8,1.7-3.8,3.8c0,2.1,1.7,3.8,3.8,3.8
		c2.1,0,3.8-1.7,3.8-3.8C161.6,296.5,159.9,294.8,157.8,294.8C157.8,294.8,157.8,294.8,157.8,294.8L157.8,294.8z M157.8,301.7
		c-1.7-0.1-3.1-1.6-2.9-3.4c0.1-1.6,1.4-2.8,2.9-2.9c1.7-0.1,3.2,1.2,3.4,2.9c0.1,1.7-1.2,3.2-2.9,3.4
		C158,301.7,157.9,301.7,157.8,301.7z M179.4,238.9h0.4c0.8,0,1.6-0.2,2.2-0.7C181.2,238.3,180.3,238.6,179.4,238.9L179.4,238.9z"/>
	<path class="st0" d="M168.9,315.1c-10.4-2.8-38.8-9.5-57.8-11.4c-0.1,0-0.2,0.4-0.1,0.4c15.6,4,47.1,9.7,57.7,11.6
		C168.9,315.8,169,315.2,168.9,315.1z"/>
	<path class="st0" d="M161,324.9c2.8,0.3,5.7,0.6,8.4,1l-0.6,0.4c2-7.5,4.3-14.9,6.7-22.2c2.4-7.3,5-14.6,8-21.8
		c-1.8,7.5-3.9,15-6.2,22.3c-2.3,7.4-4.8,14.7-7.5,22l-0.2,0.4l-0.4-0.1C166.4,326.2,163.7,325.6,161,324.9z"/>
	<path class="st0" d="M179,297c0.6-1.5,1.4-2.9,2.3-4.3c0.9-1.4,2-2.7,3.1-3.9c-0.2,0.8-0.4,1.6-0.8,2.4c-0.4,0.7-0.8,1.5-1.2,2.1
		C181.4,294.7,180.3,295.9,179,297z"/>
	<path class="st3" d="M65.5,431.5c12.9,14,42.8,12.9,118.3,17.3c10.4,0.6,34.5-71.9,23.4-73.2c-14-1.5-68.7-4.4-72.7-4.1
		C100.5,373.9,56.7,422,65.5,431.5z"/>
	<path class="st3" d="M192,374.2c0,0,31.8,0.5,48.4,5.9c22.3,7.2,38.5,22.6,44.9,29.5c13.4,14.3,35.9,58.2,24.3,66.9
		c-10.4,7.9-31.1-38.2-31.1-38.2s28.8,43.5,14.5,50.6c-14.3,7.2-35.2-47.7-35.2-47.7s28.6,45.3,12.8,50.4
		c-12,3.8-33.8-44.8-33.8-44.8s24.4,39.1,12.1,43.6c-13.5,4.9-36.4-38.7-36.4-38.7c-32.9,6.1-51.1-4.5-63.1-13.5
		C146.4,436.1,192,374.2,192,374.2z"/>
	<path class="st0" d="M269.5,422.7c3.6,5,7.2,9.9,10.3,15.3c3.1,5.3,6.1,10.7,8.7,16.2c6.4,13.6,8.3,23.1,8.1,22.6
		c-4.3-13.6-15.1-32.7-18.3-38c-3.1-5.3-6-10.7-9.1-16C269.2,422.7,269.4,422.6,269.5,422.7z"/>
	<path class="st0" d="M250.2,433.6c4.3,6.6,8.8,12.9,12.8,19.7c4,6.7,7.1,13.5,10.7,20.4c0.3,0.5-0.1,0.5-0.4,0
		c-3.8-6.8-7.8-12.8-11.7-19.6c-3.9-6.8-7.5-13.7-11.6-20.3C250,433.6,250.1,433.5,250.2,433.6z"/>
	<path class="st0" d="M232,440c7.1,9.7,12.3,20.7,17.2,31.6c0.2,0.5-0.2,0.5-0.5-0.1c-5.5-10.6-9.8-19-17-31.3
		C231.5,440,231.8,439.8,232,440z"/>
	<path class="st0" d="M106.5,383.4c4.5-3.7,17.6-12.7,31.5-12.3c0.2,0,0.2,0.2,0,0.2c-11.3,1.3-26.7,9-31.4,12.2
		c-0.1,0-0.1,0-0.1-0.1C106.5,383.5,106.5,383.4,106.5,383.4z"/>
	<path class="st3" d="M191.1,236.2c0.3,3.3,12.2,26.3,26.9,27.8c4.8,0.5,8.6-25.4,8.6-25.4l0.7-1.8l10.1-25.8l-28.3-25l-4.1-3.4
		c0,0-2.3,7.3-5.1,16.3c-0.1,0.4-0.3,0.8-0.4,1.3c-0.1,0.4-0.3,1-0.5,1.4c-0.4,1.4-0.9,2.7-1.3,4.1c-0.3,1.1-0.6,2.1-0.9,3.2
		c-0.3,1.1-0.6,2.2-0.9,3.3C193.1,223.3,191.1,234.8,191.1,236.2z"/>
	<path class="st0" d="M200,198.9c3.1,16.1,13.2,29.9,27.4,37.9l10.1-25.8l-28.3-25l-4.1-3.4C205,182.6,202.7,189.8,200,198.9z"/>
	<path class="st3" d="M282.6,180.3c-6.4,48.3-36.1,49.9-46.5,48.5c-9.4-1.3-41.5-6.8-40.1-55.4s25.9-61,47.6-59.2
		C265.5,115.9,289.1,131.9,282.6,180.3z"/>
	<path class="st0" d="M275.7,175c-1.1-0.4-2.1-0.8-3.1-1.3c-1.1-0.3-2.1-1-2.8-2c-0.3-0.7-0.2-1.6,0.4-2.1c1.3-0.8,3-0.9,4.4-0.1
		c1.5,0.5,2.7,1.6,3.4,3c0.4,0.9,0,2-0.9,2.5C276.6,175.1,276.1,175.2,275.7,175z"/>
	<path class="st0" d="M243,166.7c1.1,0.1,2.2,0.1,3.4,0c1.2,0.2,2.4-0.1,3.4-0.7c0.6-0.5,0.8-1.4,0.4-2.1c-0.9-1.3-2.4-2-3.9-1.8
		c-1.5-0.1-3.1,0.4-4.3,1.4c-0.7,0.7-0.8,1.9,0,2.6C242.3,166.5,242.6,166.7,243,166.7z"/>
	<path class="st0" d="M248.2,177.4c0-0.1-0.3,0.1-0.3,0.2c-0.5,3.3-1.6,7-4.7,7.5c-0.1,0-0.1,0.1-0.1,0.1c0,0,0,0,0.1,0.1
		C246.8,185.4,248.2,180.5,248.2,177.4z"/>
	<path class="st0" d="M245.9,173.4c-5.2-1.4-7.5,9.1-2.7,10.4C248,185,250.2,174.6,245.9,173.4z"/>
	<path class="st0" d="M243.7,173.5c-1.1,0.4-2.2,1.2-3.3,1.1c-1.1-0.1-2-1.4-2.6-2.7c0-0.1-0.2,0-0.2,0.1c-0.5,2-0.2,4.3,1.9,5
		c2.1,0.7,3.7-0.8,4.6-2.7C244.3,174,244.1,173.3,243.7,173.5z"/>
	<path class="st0" d="M267.5,180.4c0-0.1,0.2,0.2,0.2,0.3c-0.9,3.2-1.3,7.1,1.4,8.8c0.1,0,0,0.2-0.1,0.2
		C265.6,188.3,266.2,183.3,267.5,180.4z"/>
	<path class="st0" d="M271.2,177.7c5.3,0.8,3.3,11.4-1.6,10.6C264.7,187.5,266.7,177,271.2,177.7z"/>
	<path class="st0" d="M273.2,178.8c0.7,0.7,1.3,1.9,2.3,2.1c1,0.3,2.2-0.7,3.1-1.6c0.1-0.1,0.2,0,0.1,0.1c-0.3,2-1.4,4-3.4,4
		c-2,0-2.8-2-2.8-4C272.5,179,272.9,178.5,273.2,178.8z"/>
	<path class="st0" d="M243,205.3c0.6,1,1.1,2.2,2.2,2.6c1.2,0.3,2.4,0.3,3.7,0.1c0.1,0,0.1,0,0.1,0.1c0,0,0,0.1,0,0.1
		c-1.3,1-3,1.3-4.5,0.6c-1.2-0.7-1.9-2.1-1.7-3.5C242.7,205.1,242.9,205.1,243,205.3z"/>
	<path class="st0" d="M259,196.4c0,0-0.3,5-0.8,7.3c0,0.2-0.6,0.2-1.4,0c0,0,0,0-0.1,0c-4.2-0.1-7.9-2.5-9.7-6.3
		c0-0.1,0-0.3,0.1-0.3c0.1,0,0.2,0,0.3,0.1c2.5,2.6,5.8,4.3,9.3,4.9c0.3-0.6,0.3-8.5,0.7-8.5c1.7,0.5,3.4,1.3,4.9,2.3
		c1-10.4,0.4-20.8,1.5-31.1c0-0.2,0.1-0.3,0.3-0.3c0.2,0,0.3,0.1,0.3,0.3c1.4,10.9,0.6,22.9-0.2,33.6
		C264.2,199.6,259.9,196.9,259,196.4z"/>
	<path class="st0" d="M209.2,121.7c-1.6,3.8-23.6,6.4-33.3-8.4c-9.5-14.6,3.1-32.6,20.5-24C207.6,94.8,212.7,113.6,209.2,121.7z"/>
	<path class="st0" d="M175.7,93.3c3.7-4.1,8.8-6.7,14.2-7.6c5.2-0.9,10.4,1,13.8,5c3.5,3.9,5.3,9.2,6.3,14.6
		c0.4,2.7,0.6,5.5,0.6,8.2c0.1,2.8-0.4,5.6-1.3,8.2c1.5-2.5,2.5-5.2,2.8-8.1c0.4-2.9,0.5-5.8,0.3-8.7c-0.4-6-2.6-11.7-6.3-16.3
		c-4-4.8-10.5-6.9-16.6-5.4C183.7,84.6,178.7,88.2,175.7,93.3z"/>
	<path class="st0" d="M198.5,175.4c8.5,3.5,16.3-16.1,16.3-16.1s39.4,3.8,50.8-26c0,0,1.2,21.3,18.5,35.4c0,0,7.8-34-17-47.7
		c0,0-29.8-20.9-55.4,0.3S192.8,173,198.5,175.4z"/>
	<path class="st0" d="M266.4,131c-0.8,4.8-2.7,9.5-5.5,13.5c-2.7,4.2-6.3,7.7-10.4,10.5c-1,0.7-2.1,1.3-3.2,1.8l-1.6,0.9
		c-0.6,0.2-1.2,0.5-1.7,0.7c-1.2,0.4-2.3,0.9-3.5,1.3c-1.2,0.4-2.4,0.6-3.6,0.9c-0.6,0.1-1.2,0.3-1.8,0.4l-1.8,0.2l-3.7,0.4
		c-2.4,0-4.9-0.1-7.3-0.2c2.4-0.4,4.8-0.5,7.2-0.9l3.5-0.7l1.7-0.3c0.6-0.2,1.1-0.4,1.7-0.5c1.1-0.4,2.3-0.7,3.4-1
		c1.1-0.3,2.2-0.9,3.3-1.4l1.6-0.7l1.5-0.9c1-0.5,2.1-1.1,3-1.8c3.9-2.6,7.4-5.8,10.3-9.6c1.5-1.9,2.8-3.9,3.9-6
		C264.6,135.4,265.6,133.3,266.4,131z"/>
	<path class="st4" d="M196,143.2l-3.9,3.4l9.7,16.4l8.7-7.7L196,143.2z M202.6,158.1l-7.1-10.5l0.9-0.8l9.3,8.7L202.6,158.1z"/>
	<path class="st4" d="M199.8,135.9l-2.4,4.6l15.2,11.5l5.1-10.4L199.8,135.9z M211.6,147.2l-10.5-7.1l0.5-1.1l11.8,4.5L211.6,147.2z
		"/>
	<path class="st3" d="M203.2,178c0,0-7.1-17.1-14.6-14.9c-7.5,2.2-4.5,25.5,2.7,30.2c3.6,2.7,8.8,2,11.5-1.7
		c0.1-0.1,0.1-0.2,0.2-0.3L203.2,178z"/>
	<path class="st0" d="M189.6,169.7c-0.1,0-0.2,0.1-0.1,0.2c5,3.5,6.8,9.3,7.7,15c-1.2-2.4-3.2-4-6.4-2.7c-0.2,0.1-0.1,0.3,0.1,0.3
		c2.1-0.2,4.2,1,5.1,2.9c0.7,1.6,1.3,3.3,1.6,5c0.2,0.6,1.1,0.5,1.1-0.1c0,0,0-0.1,0-0.1C200.4,183.2,197.1,172.1,189.6,169.7z"/>
</g>
<g id="freepik--Padlock--inject-18">
	<path class="st7" d="M416.9,47.4v39.8h-11.2V47.4c0-15.1-11.5-27.4-25.6-27.4s-25.6,12.3-25.6,27.4v39.8h-11.2V47.4
		c0-21.7,16.5-39.3,36.8-39.3C400.4,8.1,416.9,25.7,416.9,47.4z"/>
	<polygon class="st8" points="343.2,57.7 354.4,58.2 354.4,87.1 343.2,87.1 	"/>
	<polygon class="st8" points="416.9,60.7 416.9,87.1 405.6,87.1 405.6,60.2 	"/>
	<rect x="328.8" y="64.5" class="st4" width="102.5" height="93"/>
	<rect x="380" y="64.5" class="st6" width="51.2" height="93"/>
	<path class="st0" d="M384.4,114.4l4.3,20.3h-18.2l4.3-20.3c-4.3-2.7-5.6-8.3-2.9-12.5s8.3-5.6,12.5-2.9c4.3,2.7,5.6,8.3,2.9,12.5
		C386.5,112.6,385.5,113.6,384.4,114.4L384.4,114.4z"/>
</g>
</svg>
