<?xml version="1.0" encoding="utf-8"?>
<!-- Generator: Adobe Illustrator 25.4.1, SVG Export Plug-In . SVG Version: 6.00 Build 0)  -->
<svg version="1.1" id="Layer_1" xmlns="http://www.w3.org/2000/svg" xmlns:xlink="http://www.w3.org/1999/xlink" x="0px" y="0px"
	 viewBox="0 0 1350 900" style="enable-background:new 0 0 1350 900;" xml:space="preserve">
<style type="text/css">
	.st0{fill:#180C9A;}
	.st1{opacity:0.5;fill:#180C9A;enable-background:new    ;}
	.st2{opacity:0.5;fill:#061530;enable-background:new    ;}
</style>
<g id="Layer_1_copy_2">
	<path class="st0" d="M-199,49.2c0,0,215.4,112.6,453.8,13.8c0,0,0,0,0.1,0c119.5-49.5,244.8-73.6,367.6-41.3
		c135.8,35.5,257,113,396.6,71.7c108.5-32.1,199-123.6,312.8-71.4c122,56,226.7,140.9,357.1,134.9c111.4-5.2,200.3-72.2,309-3.8
		l-14.2,858.2l-2198.5-89.8L-199,49.2z	">
<animateTransform  accumulate="none" additive="replace" attributeName="transform" attributeType="XML" calcMode="linear" dur="25" fill="remove" repeatCount="indefinite" restart="always" type="translate" values="150,0;-150,0;150,0;">
			</animateTransform>
	</path>
</g>
<g id="Layer_1_copy">
	<path class="st1" d="M-298.6,83c0,0,215.4,112.6,453.8,13.8c0,0,0,0,0.1,0c119.5-49.7,244.8-73.7,367.6-41.5
		C658.8,91,780,168.4,919.5,127.2c108.5-32.1,199-123.6,312.8-71.4c122,56,226.7,140.9,357.1,134.9c111.4-5.2,200.3-72.2,309-3.8
		l-14.2,858.1l-2198.5-89.8L-298.6,83z	">
<animateTransform  accumulate="none" additive="replace" attributeName="transform" attributeType="XML" calcMode="linear" dur="20" fill="remove" repeatCount="indefinite" restart="always" type="translate" values="150,0;-150,0;150,0;">
			</animateTransform>
	</path>
</g>
<g id="Layer_1_1_">
	<path class="st2" d="M-101.4,131.3c0,0,215.5,105.6,453.8,14.1c0,0,0,0,0.1,0C472,99.5,597.3,77.5,720.1,107.9
		c135.9,33.6,257.2,106.1,396.7,68c108.5-29.7,198.9-114.6,312.7-65.7c122.1,52.5,226.9,131.9,357.2,126.7
		c111.4-4.6,200.2-66.7,309-2.7l-13.2,800L-111,944.5L-101.4,131.3z	">
<animateTransform  accumulate="none" additive="replace" attributeName="transform" attributeType="XML" calcMode="linear" dur="15" fill="remove" repeatCount="indefinite" restart="always" type="translate" values="50,0;-50,0;50,0;">
			</animateTransform>
	</path>
</g>
</svg>
