<?xml version="1.0" encoding="utf-8"?>
<!-- Generator: Adobe Illustrator 25.4.1, SVG Export Plug-In . SVG Version: 6.00 Build 0)  -->
<svg version="1.1" id="Layer_1" xmlns="http://www.w3.org/2000/svg" xmlns:xlink="http://www.w3.org/1999/xlink" x="0px" y="0px"
	 viewBox="0 0 1350 900" style="enable-background:new 0 0 1350 900;" xml:space="preserve">
<style type="text/css">
	.st0{fill:#180C9A;}
	.st1{opacity:0.5;fill:#180C9A;enable-background:new    ;}
	.st2{opacity:0.5;fill:#061530;enable-background:new    ;}
</style>
<g id="Layer_1_copy_2">
	<path class="st0" d="M-199,33.6c0,0,215.4,71.6,453.8,8.8c0,0,0,0,0.1,0C374.4,10.9,499.7-4.4,622.5,16.1
		c135.8,22.6,257,71.9,396.6,45.6c108.5-20.4,199-78.6,312.8-45.4c122,35.6,226.7,89.6,357.1,85.8c111.4-3.3,200.3-45.9,309-2.4
		l-14.2,545.9l-2198.5-57.1L-199,33.6z	">
<animateTransform  accumulate="none" additive="replace" attributeName="transform" attributeType="XML" calcMode="linear" dur="25" fill="remove" repeatCount="indefinite" restart="always" type="translate" values="150,0;-150,0;150,0;">
			</animateTransform>
	</path>
</g>
<g id="Layer_1_copy">
	<path class="st1" d="M-298.6,55.1c0,0,215.4,71.6,453.8,8.8c0,0,0,0,0.1,0C274.8,32.3,400.1,17,522.9,37.5
		C658.8,60.2,780,109.4,919.5,83.2c108.5-20.4,199-78.6,312.8-45.4c122,35.6,226.7,89.6,357.1,85.8c111.4-3.3,200.3-45.9,309-2.4
		L1884.2,667l-2198.5-57.1L-298.6,55.1z	">
<animateTransform  accumulate="none" additive="replace" attributeName="transform" attributeType="XML" calcMode="linear" dur="20" fill="remove" repeatCount="indefinite" restart="always" type="translate" values="150,0;-150,0;150,0;">
			</animateTransform>
	</path>
</g>
<g id="Layer_1_1_">
	<path class="st2" d="M-101.4,85.8c0,0,215.5,67.2,453.8,9c0,0,0,0,0.1,0C472,65.6,597.3,51.6,720.1,70.9
		c135.9,21.4,257.2,67.5,396.7,43.3c108.5-18.9,198.9-72.9,312.7-41.8c122.1,33.4,226.9,83.9,357.2,80.6
		c111.4-2.9,200.2-42.4,309-1.7l-13.2,508.9L-111,603.1L-101.4,85.8z	">
<animateTransform  accumulate="none" additive="replace" attributeName="transform" attributeType="XML" calcMode="linear" dur="15" fill="remove" repeatCount="indefinite" restart="always" type="translate" values="50,0;-50,0;50,0;">
			</animateTransform>
	</path>
</g>
</svg>
