<svg xmlns="http://www.w3.org/2000/svg" data-name="Layer 1" viewBox="0 0 100 125" x="0px" y="0px"><title>Artboard 21</title><g><path d="M31,20A12,12,0,0,0,19,32V73.17A6.83,6.83,0,0,0,30.66,78L43,65.66,55.34,78A6.83,6.83,0,0,0,67,73.17V48.28l-2.44-1.63A59.29,59.29,0,0,1,59,42.45V70.34l-16-16-16,16V32a4,4,0,0,1,4-4H49.17A12.39,12.39,0,0,1,49,26a13.89,13.89,0,0,1,1.37-6Z"/><path d="M81,26a6,6,0,0,0-11.55-2.29.49.49,0,0,1-.9,0A6,6,0,0,0,57,26c0,6,12,14,12,14S81,32,81,26Z"/></g><text x="0" y="115" fill="#000000" font-size="5px" font-weight="bold" font-family="'Helvetica Neue', Helvetica, Arial-Unicode, Arial, Sans-serif">Created by Gregor Cresnar</text><text x="0" y="120" fill="#000000" font-size="5px" font-weight="bold" font-family="'Helvetica Neue', Helvetica, Arial-Unicode, Arial, Sans-serif">from the Noun Project</text></svg>